<svg height="43" width="300" xmlns="http://www.w3.org/2000/svg"><path d="M146.515 9.541a9.878 9.878 0 014.32.945 10.726 10.726 0 013.405 2.548 11.852 11.852 0 012.235 3.78c.545 1.47.821 3.026.813 4.594a14.533 14.533 0 01-.746 4.7 12.077 12.077 0 01-2.087 3.822 9.767 9.767 0 01-3.188 2.55 8.905 8.905 0 01-4.048.923 9.05 9.05 0 01-4.75-1.21 8.576 8.576 0 01-3.163-3.272v13.411h-5.887V9.94h5.14v3.953a9.392 9.392 0 013.298-3.185 9.162 9.162 0 014.658-1.166zm-89.838.973a11.587 11.587 0 013.774 2.593 11.019 11.019 0 012.372 3.777c.54 1.436.813 2.96.805 4.493 0 .383-.022.746-.022 1.098a4.927 4.927 0 01-.056.59l-.054.29H45.7c.07.84.293 1.66.659 2.417a5.929 5.929 0 003.252 2.945 6.225 6.225 0 002.196.394 6.78 6.78 0 003.32-.858 4.524 4.524 0 002.025-2.037l.103-.223 5.055 1.397a10.28 10.28 0 01-4.074 4.353c-1.86 1.118-4.079 1.676-6.655 1.676a12.795 12.795 0 01-5.01-.944 11.283 11.283 0 01-6.26-6.348 12.101 12.101 0 01-.859-4.526c-.01-1.584.274-3.156.838-4.636a11.327 11.327 0 012.417-3.825 11.502 11.502 0 013.867-2.626 12.78 12.78 0 015.074-.967c1.726-.029 3.438.3 5.03.967zm126.16-.973a12.53 12.53 0 015.029.967 11.427 11.427 0 013.777 2.615 11.545 11.545 0 012.395 3.8 12.8 12.8 0 010 9.098 11.69 11.69 0 01-2.372 3.8 11.153 11.153 0 01-3.778 2.615 12.685 12.685 0 01-4.619.966h-.432a12.671 12.671 0 01-5.055-.966 11.376 11.376 0 01-3.8-2.615 11.524 11.524 0 01-2.394-3.8 12.8 12.8 0 010-9.098 11.554 11.554 0 012.394-3.8 11.393 11.393 0 013.8-2.615c1.601-.664 3.321-.993 5.055-.967zm52.982 0a12.51 12.51 0 015.03.967 11.563 11.563 0 013.78 2.593 11.022 11.022 0 012.372 3.78c.54 1.43.816 2.944.813 4.47 0 .381 0 .747-.022 1.1a4.374 4.374 0 01-.11.877h-17.797c.07.838.294 1.658.66 2.416a5.962 5.962 0 001.363 1.802 5.893 5.893 0 001.888 1.143 6.243 6.243 0 002.199.397 6.795 6.795 0 003.311-.858 4.537 4.537 0 002.132-2.263l5.052 1.397a10.27 10.27 0 01-4.063 4.328c-1.86 1.142-4.08 1.712-6.655 1.712a12.797 12.797 0 01-5.01-.944 11.491 11.491 0 01-3.822-2.57 11.364 11.364 0 01-2.44-3.78 12.08 12.08 0 01-.857-4.527 12.83 12.83 0 01.838-4.635 11.317 11.317 0 012.417-3.823 11.578 11.578 0 013.845-2.615 12.856 12.856 0 015.076-.967zm26.596 0a12.53 12.53 0 015.03.967 11.584 11.584 0 013.777 2.593 11.022 11.022 0 012.372 3.78c.541 1.43.818 2.944.816 4.47 0 .381 0 .747-.022 1.1a4.553 4.553 0 01-.112.877H256.48c.068.839.29 1.659.66 2.416a5.967 5.967 0 001.36 1.802 5.858 5.858 0 001.891 1.143 6.215 6.215 0 002.197.397 6.802 6.802 0 003.316-.858 4.527 4.527 0 002.132-2.263l5.054 1.397a10.276 10.276 0 01-4.07 4.347c-1.863 1.129-4.081 1.694-6.653 1.694a12.818 12.818 0 01-5.01-.945 11.3 11.3 0 01-6.261-6.35 12.135 12.135 0 01-.855-4.527 12.79 12.79 0 01.838-4.635 11.319 11.319 0 012.414-3.823 11.566 11.566 0 013.848-2.615 12.821 12.821 0 015.073-.967zM90.484.581v32.397h-5.13v-3.965a9.406 9.406 0 01-3.297 3.188 9.187 9.187 0 01-4.658 1.162 9.877 9.877 0 01-4.305-.944 10.632 10.632 0 01-3.417-2.55 11.926 11.926 0 01-2.236-3.781 13.02 13.02 0 01-.813-4.59c-.011-1.598.241-3.187.746-4.703a12.121 12.121 0 012.088-3.822 9.722 9.722 0 013.187-2.548 8.917 8.917 0 014.043-.923 9.08 9.08 0 014.75 1.207 8.582 8.582 0 013.01 2.983l.164.287V.582zm204.484 23.062a4.85 4.85 0 110 9.702 4.85 4.85 0 010-9.702zm-175.06-13.185a9.405 9.405 0 013.102 2.885l.194.3V9.69h5.139v23.288h-5.89v-4.306a8.596 8.596 0 01-3.163 3.275 9.076 9.076 0 01-4.75 1.207 8.903 8.903 0 01-4.04-.922 9.711 9.711 0 01-3.188-2.549 12.105 12.105 0 01-2.087-3.825 14.533 14.533 0 01-.746-4.699 13.022 13.022 0 01.813-4.593 11.814 11.814 0 012.235-3.778 10.696 10.696 0 013.417-2.55 9.873 9.873 0 014.306-.945 9.15 9.15 0 014.657 1.165zM28.87 9.556c1.407-.002 2.563.261 3.47.79a5.694 5.694 0 012.11 2.057c.516.897.868 1.879 1.04 2.9.157.906.248 1.823.272 2.742l.007.552v14.38h-5.89V20.05c.002-1.844-.313-3.19-.944-4.04a3.073 3.073 0 00-2.613-1.277 4.933 4.933 0 00-3.296 1.341 7.378 7.378 0 00-2.101 3.184l-.096.309v13.41h-5.89v-12.93c.002-1.844-.312-3.19-.944-4.04a3.075 3.075 0 00-2.612-1.277c-1.144.002-2.235.441-3.275 1.319a7.178 7.178 0 00-2.13 3.186l-.088.287v13.456H0V9.94h5.317v4.264a8.798 8.798 0 013.506-3.425 10.44 10.44 0 015.074-1.207c1.926 0 3.416.465 4.471 1.397a6.279 6.279 0 012.02 3.47 9.98 9.98 0 013.56-3.633 9.605 9.605 0 014.922-1.251zm262.39.075c.155 0 .31.014.462.042v5.362c-1.652 0-3.285.353-4.79 1.033a6.05 6.05 0 00-3.034 2.965v13.945h-5.886V9.938h5.403v4.92c.395-.766.882-1.482 1.45-2.13a11.05 11.05 0 011.802-1.647 8.433 8.433 0 011.956-1.078 5.4 5.4 0 011.911-.372zm-124.095.308v23.04h-5.887V9.938zm46.118-.397c1.432 0 2.604.263 3.515.79a5.738 5.738 0 012.11 2.065 8.679 8.679 0 011.03 2.903 19.02 19.02 0 01.28 3.294l.01 14.384h-5.886V20.045c0-1.846-.323-3.194-.967-4.043a3.176 3.176 0 00-2.68-1.275 5.024 5.024 0 00-1.802.353c-.624.24-1.21.573-1.735.989a8.057 8.057 0 00-1.472 1.514 6.007 6.007 0 00-.967 1.933v13.462h-5.89V9.938h5.309V14.2a8.721 8.721 0 013.694-3.425 11.834 11.834 0 015.45-1.232zm-112.324.4v23.025h-5.887V9.941zm81.87 4.61a5.406 5.406 0 00-2.373.527c-.728.35-1.379.843-1.911 1.45a6.757 6.757 0 00-1.266 2.2 8.029 8.029 0 00-.46 2.765 7.982 7.982 0 00.463 2.795 6.823 6.823 0 001.274 2.173 5.672 5.672 0 001.911 1.428 5.814 5.814 0 004.75 0 5.674 5.674 0 001.911-1.428c.56-.645.992-1.39 1.274-2.196a8.157 8.157 0 00.464-2.813 8.046 8.046 0 00-.464-2.77 6.756 6.756 0 00-1.282-2.19 5.727 5.727 0 00-1.92-1.436 5.63 5.63 0 00-2.372-.506zm-37.93 0a5.516 5.516 0 00-1.712.279 6.16 6.16 0 00-1.638.824 7.1 7.1 0 00-1.34 1.232 5.097 5.097 0 00-.9 1.537v5.398a7.804 7.804 0 002.417 3.289 5.524 5.524 0 003.52 1.282 5.308 5.308 0 002.44-.56 5.95 5.95 0 001.905-1.56 7.19 7.19 0 001.23-2.236 8.01 8.01 0 00.438-2.635 7.397 7.397 0 00-.483-2.704 6.707 6.707 0 00-1.339-2.168 6.275 6.275 0 00-2.023-1.45 6.044 6.044 0 00-2.515-.529zm-66.226-.015a5.282 5.282 0 00-2.439.559c-.727.371-1.37.887-1.889 1.517a7.26 7.26 0 00-1.229 2.235 8.018 8.018 0 00-.439 2.638 7.396 7.396 0 00.484 2.702 6.696 6.696 0 001.338 2.177 6.274 6.274 0 002.023 1.45c.791.351 1.648.53 2.515.525a5.537 5.537 0 001.712-.28 6.004 6.004 0 001.627-.813 7.216 7.216 0 001.34-1.229 5.1 5.1 0 00.789-1.262l.111-.277V19.08a7.806 7.806 0 00-2.428-3.25 5.525 5.525 0 00-3.515-1.293zm38.192-.24a6.044 6.044 0 00-2.515.528 6.282 6.282 0 00-2.023 1.45 6.718 6.718 0 00-1.338 2.174 7.403 7.403 0 00-.484 2.727 8.001 8.001 0 00.44 2.635c.273.812.689 1.569 1.228 2.235a5.913 5.913 0 001.911 1.54c.757.377 1.594.569 2.44.558a5.514 5.514 0 003.515-1.296 7.822 7.822 0 002.295-2.978l.121-.294-.01-5.418a5.128 5.128 0 00-.9-1.536 7.078 7.078 0 00-1.341-1.232 6.14 6.14 0 00-1.627-.814 5.533 5.533 0 00-1.712-.279zm-65.322-.475a6 6 0 00-1.693.235 5.4 5.4 0 00-.525.184 6.16 6.16 0 00-1.824 1.163c-.131.111-.255.254-.374.39a6.21 6.21 0 00-.923 1.398 6.34 6.34 0 00-.567 2.028l-.025.302 11.947.014a6.417 6.417 0 00-.067-.56 6.609 6.609 0 00-.134-.686 5.87 5.87 0 00-1.24-2.431 5.84 5.84 0 00-4.007-2.023l-.283-.014zm180.141 1.565a6.076 6.076 0 00-1.297 1.802 6.362 6.362 0 00-.591 2.327h11.952c-.147-1.726-.784-3.11-1.911-4.151a5.999 5.999 0 00-8.153.022zm30.63-1.582a5.803 5.803 0 00-4.032 1.57 5.98 5.98 0 00-1.296 1.802 6.309 6.309 0 00-.594 2.328l11.952.011c-.145-1.726-.782-3.11-1.911-4.151a5.842 5.842 0 00-4.118-1.56z" fill="#db003a" fill-rule="evenodd"/></svg>