<svg height="43" viewBox="0 0 300 43" width="300" xmlns="http://www.w3.org/2000/svg"><path d="m146.514593 9.54145349c1.492442-.01569768 2.969767.30755814 4.319767.94476741 1.293605.6133721 2.451745 1.4796512 3.405814 2.5482558.973838 1.1098838 1.731977 2.3918605 2.234884 3.7802326.545349 1.469186.82093 3.0255814.813372 4.5930233.011047 1.597093-.240697 3.1848837-.74593 4.6994186-.45814 1.3901162-1.165698 2.6854651-2.087209 3.8226744-.870931 1.0651163-1.957558 1.9343023-3.188372 2.5505814-1.257559.622093-2.644768.9377907-4.048256.922093-1.664535.0412791-3.30814-.3773256-4.75-1.2098837-1.329651-.7854651-2.422093-1.9162791-3.162791-3.2715116v13.4110465h-5.886628v-32.39360469h5.140698v3.95348839c.819186-1.3180233 1.951744-2.4122093 3.297093-3.1854651 1.42093-.79534887 3.02907-1.19767445 4.657558-1.16511631zm-89.8380232.97261631c1.4180232.6046511 2.7011628 1.4860465 3.7744186 2.5930232 1.0401163 1.0843023 1.847093 2.3697675 2.372093 3.7773256.5401163 1.4360465.8127907 2.9587209.8048281 4.4930233 0 .3825581-.02227.7459302-.02227 1.0976744-.0065891.1972868-.0250646.3940568-.0552541.5891042l-.0540482.2911283h-17.7976744c.0697674.8389535.2930232 1.658721.6593023 2.4168605.6674419 1.3610465 1.8313954 2.4151163 3.2523256 2.9447674.7023256.2627907 1.4465116.3959303 2.1959302.3941861 1.1616279.002907 2.3046512-.2924419 3.3191861-.8581395.8806798-.4416816 1.5909453-1.1578093 2.0260789-2.036806l.1029908-.2230778 5.0546512 1.3965117c-.8982558 1.822093-2.3156977 3.3366279-4.0738372 4.3534883-1.8610465 1.1174419-4.0790698 1.6761628-6.6552326 1.6761628-1.716279.0244186-3.4203488-.2965116-5.0098837-.944186-2.8697674-1.1668605-5.1343023-3.4622093-6.2610465-6.3482558-.5732558-1.4401163-.8645349-2.9761628-.8581395-4.5261628-.0098837-1.583721.2744186-3.1552326.8383721-4.6354651.5401162-1.4244186 1.3622093-2.7255814 2.4168604-3.825 1.0953489-1.130814 2.4116279-2.0244186 3.8668605-2.6261628 1.6081395-.66453492 3.3343023-.99302329 5.0738372-.9668605 1.7255814-.02906977 3.4377907.3 5.0296512.9668605zm126.1600002-.97261631c1.725-.02732558 3.437209.30174418 5.02907.96686051 1.423255.6069767 2.70872 1.497093 3.777325 2.6151162 1.039535 1.0976745 1.852907 2.3889535 2.394768 3.8 1.113953 2.9302326 1.113953 6.1674419 0 9.0970931-.538373 1.4081395-1.344186 2.6982558-2.372093 3.8-1.063954 1.1244186-2.350582 2.0151162-3.777326 2.6151162-1.4672.6086241-3.03406.9358527-4.619078.9660123l-.432666.0008482c-1.73314.0267442-3.453489-.3023256-5.05407-.9668605-1.431977-.6029069-2.725-1.4930232-3.8-2.6151162-1.039535-1.0970931-1.853488-2.3883721-2.394767-3.8-1.113954-2.9296512-1.113954-6.1668605 0-9.0970931.54186-1.4110465 1.355814-2.7023255 2.394767-3.8 1.075-1.1215116 2.368023-2.0116279 3.8-2.6151162 1.600581-.66395353 3.32093-.9930233 5.05407-.96686051zm52.982849 0c1.725-.02790698 3.437209.30116279 5.029069.96686051 1.420349.6034883 2.705814 1.4848837 3.780233 2.5930232 1.040116 1.0854651 1.847674 2.3715116 2.372093 3.7802326.540116 1.4284883.815698 2.9430232.812813 4.4703488 0 .3802326 0 .7459302-.022115 1.0982558-.006396.2953489-.043024.5889535-.108721.8773256h-17.798256c.070349.8389535.294186 1.6581395.659884 2.4168605.335465.6819767.798255 1.2936046 1.363372 1.8017442.551744.4965116 1.192442.8843023 1.888372 1.1430232.703488.2633721 1.448256.3976744 2.198837.3965116 1.158721.0011628 2.298837-.294186 3.311047-.8575581.955232-.4796512 1.709883-1.2813954 2.131976-2.2633721l5.051744 1.397093c-.898837 1.8110465-2.312209 3.3168605-4.06279 4.327907-1.860465 1.1418605-4.07907 1.7127907-6.655233 1.7127907-1.716279.0244186-3.419767-.2965116-5.009884-.944186-1.434302-.5901163-2.734302-1.4645349-3.822093-2.5709303-1.056395-1.0848837-1.886046-2.3697674-2.438953-3.7802325-.573837-1.4395349-.864535-2.9761628-.857779-4.5261628-.009082-1.583721.275221-3.1552326.838012-4.6348837.540116-1.4238373 1.362209-2.7238373 2.41686-3.8226745 1.091279-1.1226744 2.399419-2.0122093 3.844767-2.6151162 1.609303-.66279074 3.336047-.99127912 5.076745-.96686051zm26.596046 0c1.725-.02732558 3.437209.30174418 5.02907.96686051 1.419186.6040697 2.703488 1.4860465 3.777325 2.5930232 1.040117 1.0854651 1.847675 2.3715116 2.372093 3.7802326.54128 1.4284883.818024 2.9430232.815713 4.4703488 0 .3802326 0 .7459302-.022108 1.0982558-.008721.2953489-.04593.5889535-.111628.8773256h-17.795349c.068024.8395349.291279 1.6593023.659884 2.4168605.334302.6813953.796512 1.2930232 1.360465 1.8017442.552326.4976744 1.194186.8854651 1.891279 1.1430232.702326.2633721 1.446512.3982558 2.196512.3965116 1.160465.0017442 2.302326-.2936046 3.316279-.8575581.955814-.4790698 1.710465-1.280814 2.131977-2.2633721l5.05407 1.397093c-.897675 1.8191861-2.314535 3.3319768-4.070931 4.3476744-1.862209 1.1284884-4.080232 1.6930233-6.652325 1.6930233-1.716279.0238372-3.419768-.297093-5.009884-.944186-2.869186-1.1691861-5.13314-3.4651163-6.261047-6.3511628-.571511-1.4401163-.861627-2.9767442-.855232-4.5261628-.009884-1.583721.274419-3.1552326.838372-4.6348837.539535-1.4238373 1.360465-2.7238373 2.413953-3.8226745 1.091861-1.1232558 2.401163-2.0127907 3.847675-2.6151162 1.608139-.66337214 3.334302-.99186051 5.073837-.96686051zm-171.9317441-8.95994186v32.39651167h-5.1296511v-3.9651163c-.8191861 1.3186046-1.9517442 2.4139535-3.2970931 3.1883721-1.422093.7936046-3.0296511 1.194186-4.6575581 1.1622093-1.4877907.0133721-2.9598837-.3093024-4.3058139-.9447675-1.2994187-.6104651-2.461628-1.4784883-3.4168605-2.5505814-.9726744-1.1110465-1.730814-2.3924418-2.2354651-3.7802325-.5447675-1.4686047-.8203489-3.0238372-.8127907-4.5906977-.0116279-1.5976744.2406976-3.1866279.7459302-4.7023256.4593023-1.3895349 1.1662791-2.6843023 2.0872093-3.822093.8703488-1.0656977 1.9569768-1.9337209 3.1877907-2.5482558 1.2563954-.62093025 2.6418605-.93662792 4.0430233-.92209304 1.6639534-.04069767 3.3069767.37674419 4.75 1.20697674 1.2379152.7277409 2.2717993 1.7537583 3.0090182 2.9821598l.164819.2870263v-13.39709307zm204.4844771 23.06156977c2.678488 0 4.850581 2.1715116 4.850581 4.8505814 0 2.6784884-2.172093 4.85-4.850581 4.85-2.67907 0-4.850582-2.1715116-4.850582-4.85 0-2.6790698 2.171512-4.8505814 4.850582-4.8505814zm-175.061047-13.1846512c1.241324.7137746 2.30183 1.7010046 3.102409 2.8848663l.194684.3000175v-3.95348842h5.138372v23.28779072h-5.890116v-4.3052326c-.740698 1.355814-1.83314 2.4866279-3.162791 3.2744186-1.442442.8302326-3.085465 1.2476744-4.749418 1.2069768-1.400582.0145349-2.784884-.3011628-4.040117-.9220931-1.231395-.6139534-2.318023-1.4825581-3.188372-2.5482558-.92093-1.1377907-1.628488-2.4337209-2.087209-3.825-.505233-1.5145349-.756977-3.1023255-.74593-4.6994186-.007558-1.5674418.268023-3.1232558.813372-4.5930232.502325-1.3877907 1.260465-2.6691861 2.234884-3.777907.956395-1.0709302 2.118604-1.9383721 3.417441-2.5505814 1.345349-.63488372 2.817442-.95813953 4.305233-.94418605 1.628488-.03313953 3.236628.36918605 4.657558 1.16511625zm-91.036744-.90273253c1.4063953-.00165474 2.5627907.26162791 3.4703488.79069763.8709302.4883721 1.5988372 1.1976745 2.1093023 2.0563954.5162791.897093.8680233 1.8790698 1.0395349 2.9.1569768.9064922.2481428 1.8230782.2725267 2.7423557l.0066088.5518303v14.380814h-5.8896006v-12.927907c.0017442-1.844186-.3127907-3.1906977-.944186-4.0401163-.6017442-.8366279-1.5825582-1.316279-2.6127907-1.2767441-1.2273256.0215116-2.402907.4994186-3.2965117 1.341279-.9686941.8597496-1.69217 1.9582772-2.1009209 3.1835484l-.0955907.3088935v13.4110465h-5.8895349v-12.930814c.0017442-1.8436046-.3127907-3.1906976-.944186-4.0401162-.6017442-.8366279-1.5825582-1.3156977-2.6127907-1.2767442-1.1436047.0017442-2.23488374.441279-3.27441863 1.3186046-.98741694.8508306-1.72267738 1.9523137-2.1303707 3.1862131l-.08823395.2870427v13.455814h-5.88953488v-23.03662791h5.31686046v4.26395351c.82093024-1.4511628 2.03662791-2.6389535 3.50639535-3.4255814 1.56220935-.82500002 3.30813955-1.24069769 5.07383725-1.20697676 1.9261628 0 3.416279.46569766 4.4709302 1.39709306 1.0348837.9040697 1.744186 2.1232558 2.0197674 3.4697674.852907-1.4976744 2.0790698-2.7488372 3.5593024-3.6319767 1.4994186-.85174423 3.1994186-1.28372097 4.9232558-1.25174423zm262.390116.07556396c.154651-.00056396.308721.01338953.461047.0418779v5.36162787c-1.651744.0005814-3.284303.352907-4.788954 1.033721-1.336046.5895349-2.413953 1.6424418-3.034302 2.9645349v13.9447674h-5.886628v-23.03953489h5.403488v4.92034889c.394768-.7668605.881977-1.4825582 1.45-2.1313954.538373-.6133721 1.142442-1.1656977 1.802326-1.6459302.601163-.4447675 1.258721-.8069768 1.955814-1.0784884.608721-.2383721 1.256395-.36453489 1.911046-.37152907zm-124.095407.30728488v23.03953489h-5.887209v-23.03953489zm46.117675-.39674418c1.432558 0 2.604069.26337209 3.515116.79069767.87093.4924419 1.598256 1.2040698 2.109302 2.0645349.513954.8988372.863372 1.8819767 1.030814 2.902907.188954 1.0883721.281977 2.1901162.279651 3.294186l.011047 14.3837209h-5.887209v-12.9331395c0-1.8459302-.322093-3.1936046-.966279-4.0430233-.627907-.8418604-1.630814-1.3186046-2.679652-1.2744186-.617441.005814-1.227907.125-1.802325.3523256-.624419.2401163-1.209884.5738372-1.734884.9889535-.555232.4377907-1.05.947093-1.472674 1.5145349-.436047.5808139-.763954 1.2354651-.966279 1.9331395v13.4616279h-5.890117v-23.03953485h5.308721v4.26104655c.867442-1.4802326 2.152326-2.6720931 3.693605-3.4255814 1.692442-.84011631 3.561628-1.26220933 5.451163-1.23197677zm-112.32407.39965116v23.02558141h-5.8872094v-23.02558141zm81.869709 4.60988371c-.82093-.0063953-1.631977.1744186-2.372093.527907-.728488.3494186-1.37907.8430232-1.911628 1.4505814-.556976.6459302-.986046 1.3924418-1.265697 2.1988372-.314535.8877907-.470349 1.8238372-.460465 2.7656977-.013373.9517442.143604 1.8976744.463372 2.794186.286046.797093.718023 1.5343023 1.274418 2.1738372.528489.605814 1.180233 1.0924419 1.911047 1.4273256 1.511046.6761628 3.238372.6761628 4.749418 0 .731396-.3348837 1.382558-.8215116 1.911628-1.4273256.559303-.6453488.991861-1.3901163 1.273837-2.1965116.318605-.902907.475582-1.8552326.463954-2.8133721.008721-.9430233-.148256-1.8802326-.463954-2.7686047-.285465-.8046511-.720348-1.5482558-1.282558-2.1906976-.531395-.608721-1.185465-1.0982558-1.919186-1.4360465-.744767-.3389535-1.55407-.5116279-2.372093-.505814zm-37.928953 0c-.581977.0023256-1.159884.0965116-1.712791.2796512-.583721.191279-1.135465.469186-1.637209.8238372-.497675.3517442-.948837.7656977-1.340698 1.2325581-.387791.4552326-.692442.9755814-.9 1.5366279v5.3976744c.499419 1.2912791 1.333721 2.4261628 2.416861 3.2889535.988372.8244186 2.23372 1.277907 3.520348 1.2819768.845931.0110465 1.682559-.180814 2.439535-.558721.73721-.3819767 1.386047-.9139534 1.905233-1.5616279.539535-.6656976.956395-1.4226744 1.229651-2.2354651.292442-.847093.440698-1.7377907.438372-2.6343023.009302-.9238372-.154651-1.8412791-.483139-2.7046512-.303489-.8017441-.75814-1.5377907-1.338373-2.1680232-.57093-.6139535-1.25872-1.1069768-2.023255-1.4505814-.790698-.3540698-1.648256-.5343023-2.514535-.527907zm-66.2262212-.0140116c-.8459302-.0116279-1.6825581.1796511-2.4389535.5587209-.7273256.3709302-1.3703488.8872093-1.8889535 1.5174419-.5383721.6668604-.9546511 1.4232558-1.2290697 2.2348837-.2930233.8488372-.4412791 1.7401163-.4389535 2.6377907-.0087209.9226744.1552325 1.8389535.4837209 2.7017442.3023256.8046511.7563954 1.5436046 1.3383721 2.1767442.5703488.6133721 1.2581395 1.1063953 2.0226744 1.45.7912791.3517441 1.6482558.5308139 2.5145349.5251371.5819768-.0024627 1.1598837-.0966488 1.7127907-.2792069.5802326-.1872093 1.1284884-.4610465 1.6261628-.8133721.497093-.3511628.9476744-.7645349 1.3412791-1.2290698.3231589-.3803294.588582-.8054748.787858-1.2619778l.1115606-.277557v-5.3982559c-.508721-1.2779069-1.3465117-2.3994186-2.427907-3.2494186-.9854651-.8273255-2.2284884-1.2848837-3.5151163-1.2936046zm38.1914532-.2399419c-.866279-.0063953-1.723837.1738372-2.514535.527907-.764534.3436046-1.452325.8366279-2.023255 1.45-.580814.6325581-1.034884 1.3703488-1.337791 2.1738372-.331395.8703488-.495349 1.7953488-.483721 2.7267442-.002326.8965116.14593 1.7872093.438953 2.6348837.273256.8122093.689535 1.5691861 1.22907 2.2348837.522675.6412791 1.173256 1.1656977 1.911047 1.5395349.756976.377907 1.593604.5697675 2.439535.5593023 1.286628-.0087209 2.530232-.4674418 3.514535-1.2965116.997137-.7926655 1.78423-1.8151919 2.29497-2.9784092l.12189-.2936838-.011047-5.4174419c-.208139-.5610465-.51279-1.0808139-.9-1.5366279-.39186-.4668604-.843023-.8808139-1.340697-1.2319767-.498837-.3505814-1.047093-.6244186-1.626163-.8133721-.552907-.1825582-1.130814-.2767442-1.712791-.2790698zm-65.3212788-.4751744c-.5726744-.002907-1.1424418.0761628-1.6930232.2348837-.177907.0523256-.3534884.1139535-.525.1843023-.672093.2767442-1.2895349.6703489-1.8244186 1.1622094-.1313954.1116279-.2546512.2540697-.3744186.391279-.3691861.422093-.6790698.8918605-.9220931 1.397093-.3011627.639971-.4928234 1.3257904-.5675815 2.0282465l-.0248603.3019861 11.947093.0139535c-.0139535-.2011628-.0389535-.3802326-.0668605-.5593023-.0325581-.230814-.0773255-.4604652-.1343023-.6872093-.2168604-.8965117-.6418604-1.7290698-1.2406977-2.430814-.147093-.169186-.3023255-.3302325-.466279-.4831395-.9757268-.9034884-2.2256541-1.4428598-3.5406262-1.5394373l-.2826991-.013889zm180.1405228 1.564593c-.538953.5156977-.978488 1.1267442-1.296511 1.8023256-.343023.730814-.544186 1.5209302-.591861 2.3273256h11.952326c-.147093-1.7267442-.783721-3.1110465-1.911047-4.1517442-2.305813-2.1244186-5.85872-2.1145349-8.152907.022093zm30.630931-1.5813953c-.760465-.0052326-1.514535.1360465-2.221512.416279-.669767.2686047-1.283721.6598838-1.810465 1.1540698-.540698.5145349-.980814 1.1255814-1.296512 1.8017442-.345348.730814-.547674 1.5209302-.594767 2.327907l11.952325.0110465c-.145348-1.7267442-.781976-3.1110465-1.911046-4.1517442-1.11686-1.0372093-2.594767-1.5965116-4.118023-1.5593023z" fill="#ff0045" fill-rule="evenodd"/></svg>