<svg height="23" width="265" viewBox="0 0 265 23"  xmlns="http://www.w3.org/2000/svg"><mask id="a" fill="#fff"><path d="M.179.056h12.214v16.786H.179z" fill-rule="evenodd"/></mask><mask id="b" fill="#fff"><path d="M148.54 12.105h4.967v4.967h-4.967z" fill-rule="evenodd"/></mask><g fill="#fff" fill-rule="evenodd"><path d="M9.389 6.916a4.394 4.394 0 00-1.625-1.674 4.649 4.649 0 00-2.432-.618 4.566 4.566 0 00-2.07.472c-.63.315-1.187.759-1.633 1.305A6.206 6.206 0 00.561 8.357a7.443 7.443 0 00-.382 2.408 6.666 6.666 0 00.416 2.35c.258.711.647 1.367 1.145 1.936.489.549 1.084.993 1.749 1.306.69.325 1.443.49 2.205.484a4.704 4.704 0 002.384-.595 4.816 4.816 0 001.688-1.633v2.03h2.627V.056H9.389zm0 5.376a2.61 2.61 0 01-.46.788c-.202.238-.433.45-.688.63-.254.18-.535.32-.832.416a2.835 2.835 0 01-.877.142A3.119 3.119 0 015.244 14a3.212 3.212 0 01-1.035-.743 3.428 3.428 0 01-.685-1.114 3.787 3.787 0 01-.248-1.384c-.001-.46.075-.916.225-1.35.14-.416.353-.803.629-1.144.265-.323.595-.587.967-.777a2.704 2.704 0 011.249-.286 2.829 2.829 0 011.8.662c.553.435.982 1.01 1.243 1.664z" mask="url(#a)" transform="translate(33.935 .41)"/><path d="M17.638 6.518a2.915 2.915 0 00-1.08-1.053c-.464-.27-1.056-.405-1.776-.404a4.918 4.918 0 00-2.521.64 5.11 5.11 0 00-1.822 1.86 3.215 3.215 0 00-1.035-1.777c-.54-.476-1.302-.715-2.289-.715a5.345 5.345 0 00-2.597.618 4.505 4.505 0 00-1.796 1.754V5.258H0v11.795h3.015v-6.89a3.675 3.675 0 011.136-1.778c.533-.45 1.091-.674 1.677-.675.527-.02 1.03.225 1.338.654.323.434.484 1.124.483 2.068v6.62h3.016v-6.866a3.778 3.778 0 011.124-1.788 2.526 2.526 0 011.688-.687c.527-.02 1.03.226 1.338.654.323.435.484 1.124.483 2.069v6.619h3.016V9.69a9.738 9.738 0 00-.143-1.687 4.457 4.457 0 00-.533-1.485M48.677 17.047h3.014V5.258h-3.014zM63.08 5.13v2.023c-.42-.674-.999-1.234-1.688-1.63a4.685 4.685 0 00-2.384-.597 5.055 5.055 0 00-2.204.484 5.476 5.476 0 00-1.75 1.305A6.049 6.049 0 0053.91 8.65c-.28.752-.42 1.549-.417 2.351a7.44 7.44 0 00.382 2.407 6.198 6.198 0 001.069 1.958c.445.546 1.002.99 1.632 1.305.643.318 1.352.48 2.069.472a4.647 4.647 0 002.431-.618 4.401 4.401 0 001.62-1.677v2.205h3.015V5.129zm-.383 7.109a4.005 4.005 0 01-1.237 1.675c-.504.425-1.141.66-1.8.664a2.721 2.721 0 01-1.249-.286 3.028 3.028 0 01-.978-.789 3.682 3.682 0 01-.63-1.144 4.097 4.097 0 01-.224-1.349 3.79 3.79 0 01.247-1.396 3.44 3.44 0 01.685-1.113 3.217 3.217 0 011.036-.742 3.094 3.094 0 011.288-.27c.298 0 .594.049.877.142.296.097.577.237.832.417s.486.391.687.63c.198.234.354.5.46.787zM120.715 17.27a6.552 6.552 0 01-2.565-.483 5.884 5.884 0 01-1.957-1.317 5.818 5.818 0 01-1.249-1.935 6.185 6.185 0 01-.439-2.318 6.57 6.57 0 01.43-2.373 5.794 5.794 0 011.237-1.957 5.928 5.928 0 011.968-1.339 6.582 6.582 0 012.6-.495 6.405 6.405 0 012.574.495 5.92 5.92 0 011.936 1.328 5.643 5.643 0 011.214 1.935c.277.732.418 1.507.417 2.29 0 .194 0 .381-.012.561a2.24 2.24 0 01-.055.45H117.7c.036.43.15.849.338 1.237a3.053 3.053 0 001.665 1.508c.36.135.741.203 1.125.203a3.48 3.48 0 001.696-.44c.489-.245.875-.655 1.091-1.158l2.587.715a5.259 5.259 0 01-2.08 2.216c-.953.585-2.089.877-3.408.877zm3.06-7.11c-.075-.884-.401-1.592-.979-2.125a3.071 3.071 0 00-4.174.011 3.111 3.111 0 00-.664.923 3.258 3.258 0 00-.303 1.191zM134.332 17.27a6.563 6.563 0 01-2.565-.483 5.786 5.786 0 01-3.205-3.252 6.213 6.213 0 01-.438-2.318c-.005-.81.14-1.615.429-2.373a5.795 5.795 0 011.236-1.957 5.922 5.922 0 011.97-1.339 6.564 6.564 0 012.598-.495 6.415 6.415 0 012.575.495c.726.31 1.384.761 1.934 1.328a5.643 5.643 0 011.214 1.935c.277.732.419 1.507.418 2.29 0 .194 0 .381-.012.561a2.331 2.331 0 01-.057.45h-9.11c.034.43.148.85.337 1.237.171.349.408.662.696.923a3 3 0 00.969.585c.36.135.74.204 1.124.203.595 0 1.18-.15 1.698-.44.49-.245.876-.655 1.092-1.158l2.588.715a5.261 5.261 0 01-2.085 2.226c-.953.578-2.089.867-3.406.867zm3.06-7.11c-.074-.884-.4-1.592-.978-2.125a2.991 2.991 0 00-2.109-.799 2.971 2.971 0 00-2.728 1.727 3.23 3.23 0 00-.304 1.192zM149.361 7.866c-.845 0-1.681.18-2.451.53a3.097 3.097 0 00-1.554 1.517v7.14h-3.014V5.256h2.767v2.52a5.43 5.43 0 01.742-1.092c.276-.314.585-.597.923-.842a4.318 4.318 0 011.001-.553c.312-.122.643-.186.979-.19h.371c.08 0 .158.007.236.022zM75.376 17.27a4.634 4.634 0 01-2.432-.62 4.391 4.391 0 01-1.62-1.674v6.866h-3.013V5.257h2.632V7.28c.42-.675.999-1.235 1.688-1.631a4.691 4.691 0 012.384-.597 5.058 5.058 0 012.212.484 5.492 5.492 0 011.744 1.305 6.068 6.068 0 011.144 1.935c.28.752.42 1.55.417 2.352a7.44 7.44 0 01-.382 2.406 6.183 6.183 0 01-1.069 1.957 5 5 0 01-1.632 1.306 4.56 4.56 0 01-2.073.472m-1.01-2.565c.433.006.861-.093 1.249-.286.377-.196.71-.468.975-.8.277-.34.49-.728.63-1.144.15-.434.226-.89.224-1.349a3.787 3.787 0 00-.247-1.385 3.434 3.434 0 00-.685-1.11 3.213 3.213 0 00-1.036-.742 3.094 3.094 0 00-1.287-.27c-.298 0-.594.049-.877.142-.3.098-.582.24-.839.422-.254.18-.485.392-.686.631a2.61 2.61 0 00-.46.787v2.764a3.996 3.996 0 001.237 1.684 2.828 2.828 0 001.802.656M82.574 17.053h3.015V5.257h-3.015zM93.612 17.27a6.488 6.488 0 01-2.587-.495 5.824 5.824 0 01-1.946-1.339 5.9 5.9 0 01-1.226-1.945 6.553 6.553 0 010-4.658 5.916 5.916 0 011.226-1.946 5.833 5.833 0 011.946-1.339c.82-.34 1.7-.508 2.587-.495a6.415 6.415 0 012.575.495 5.85 5.85 0 011.934 1.34 5.911 5.911 0 011.226 1.945c.57 1.5.57 3.158 0 4.658a5.986 5.986 0 01-1.214 1.945 5.71 5.71 0 01-1.934 1.339c-.82.34-1.7.508-2.587.495m-3.08-6.097c-.008.487.073.972.236 1.43.147.409.368.786.653 1.114.27.31.604.56.978.73a2.977 2.977 0 002.432 0c.374-.17.708-.42.979-.73.286-.33.508-.712.652-1.125.163-.462.243-.95.238-1.44a4.12 4.12 0 00-.238-1.418 3.46 3.46 0 00-.657-1.121 2.882 2.882 0 00-2.197-.994c-.42-.004-.835.089-1.214.27a3.064 3.064 0 00-.98.742 3.46 3.46 0 00-.647 1.126 4.11 4.11 0 00-.236 1.416M112.757 17.053h-3.014V10.43c0-.945-.165-1.635-.495-2.07a1.626 1.626 0 00-1.372-.653 2.572 2.572 0 00-.923.18 3.4 3.4 0 00-.888.507 4.125 4.125 0 00-.754.776 3.076 3.076 0 00-.495.99v6.892h-3.015V5.256h2.718v2.182a4.465 4.465 0 011.89-1.754 6.059 6.059 0 012.792-.63c.733 0 1.333.134 1.8.404.445.252.818.617 1.08 1.057.263.46.442.964.527 1.487.097.557.145 1.12.143 1.686zM32.165 8.813a5.642 5.642 0 00-1.214-1.934 5.933 5.933 0 00-1.933-1.328 6.386 6.386 0 00-2.575-.495 6.543 6.543 0 00-2.598.495 5.89 5.89 0 00-1.98 1.345 5.8 5.8 0 00-1.237 1.958 6.55 6.55 0 00-.43 2.374c-.002.793.147 1.58.44 2.317a5.777 5.777 0 003.206 3.25 6.551 6.551 0 002.565.484c1.319 0 2.455-.286 3.407-.859a5.263 5.263 0 002.086-2.228l-2.588-.716a2.316 2.316 0 01-1.09 1.158c-.52.29-1.104.44-1.7.439-.383 0-.764-.067-1.124-.202a3.036 3.036 0 01-1.665-1.508 3.515 3.515 0 01-.337-1.237h9.112c.032-.148.051-.3.056-.45 0-.18.011-.367.011-.563a6.44 6.44 0 00-.412-2.3zm-8.812 1.35c.024-.413.127-.818.304-1.193.124-.258.283-.499.472-.715.061-.07.124-.143.192-.2a3.154 3.154 0 011.202-.69c.282-.081.574-.122.867-.12a2.99 2.99 0 012.977 2.287c.03.116.052.234.069.352.014.092.027.184.034.287z"/><path d="M151.024 12.105a2.484 2.484 0 110 4.967 2.484 2.484 0 010-4.967" mask="url(#b)" transform="translate(0 .168)"/><path d="M170.9 5.45v1.612h.072c.145-.225.333-.454.566-.686s.517-.441.854-.626.718-.337 1.143-.457.902-.18 1.432-.18c.818 0 1.572.156 2.262.469s1.283.742 1.78 1.287.883 1.187 1.156 1.925.409 1.532.409 2.383-.133 1.648-.397 2.394-.642 1.396-1.131 1.95-1.083.994-1.781 1.323-1.488.493-2.37.493c-.819 0-1.569-.169-2.25-.505s-1.208-.795-1.577-1.372h-.048v7.315h-2.887V5.45zm6.738 5.727c0-.45-.068-.895-.205-1.336s-.34-.838-.613-1.191-.618-.638-1.035-.854-.906-.325-1.468-.325c-.53 0-1.003.112-1.42.337a3.645 3.645 0 00-1.744 2.07c-.153.448-.229.897-.229 1.347s.076.894.229 1.335.377.838.673 1.191.654.638 1.071.855.89.324 1.42.324c.562 0 1.05-.112 1.468-.336s.762-.514 1.035-.867.477-.754.613-1.203.205-.898.205-1.347zm6.262-5.728h2.767v1.925h.048c.321-.673.77-1.219 1.348-1.636.577-.417 1.251-.626 2.021-.626.113 0 .233.004.361.012s.24.028.337.06v2.648a3.399 3.399 0 00-.89-.12c-.658 0-1.187.12-1.588.36s-.714.53-.939.867a3.102 3.102 0 00-.457 1.034c-.08.353-.12.634-.12.843V17H183.9zm16.994 4.62c0-.368-.052-.721-.156-1.058s-.269-.634-.493-.89c-.225-.257-.51-.462-.855-.614s-.75-.229-1.215-.229c-.866 0-1.6.26-2.202.782s-.934 1.191-.998 2.01zm2.888 1.3v.385c0 .128-.008.257-.024.385h-8.783a2.86 2.86 0 001.058 2.033c.305.25.65.446 1.035.59s.786.217 1.203.217c.722 0 1.332-.133 1.83-.397s.906-.63 1.227-1.095l1.925 1.54c-1.14 1.54-2.792 2.31-4.958 2.31-.898 0-1.724-.14-2.478-.421s-1.408-.678-1.961-1.191-.987-1.143-1.3-1.89c-.313-.745-.469-1.592-.469-2.538 0-.93.156-1.777.47-2.539a5.78 5.78 0 011.287-1.95c.545-.537 1.19-.954 1.937-1.25s1.552-.446 2.418-.446c.802 0 1.544.133 2.226.397s1.272.658 1.769 1.18.886 1.17 1.167 1.949.421 1.688.421 2.731zm9.655-2.84c-.257-.336-.61-.63-1.059-.878s-.938-.373-1.468-.373c-.465 0-.89.096-1.275.289s-.578.513-.578.962.213.767.638.951c.378.164.911.331 1.6.501l.265.065c.433.096.87.224 1.312.385.44.16.842.373 1.203.637.36.265.654.594.878.987.225.393.337.87.337 1.432 0 .706-.132 1.303-.397 1.792-.265.49-.618.887-1.059 1.192a4.459 4.459 0 01-1.54.661 7.985 7.985 0 01-1.817.205 7.212 7.212 0 01-2.623-.493c-.85-.33-1.556-.799-2.117-1.408l1.9-1.78c.322.416.739.761 1.252 1.034s1.083.409 1.709.409c.208 0 .42-.024.637-.072s.417-.125.602-.229c.184-.104.333-.245.445-.421.112-.176.168-.393.168-.65 0-.481-.22-.826-.661-1.034-.392-.186-.959-.371-1.7-.557l-.286-.07c-.433-.095-.854-.22-1.263-.372s-.774-.353-1.095-.602-.577-.557-.77-.926-.289-.826-.289-1.372c0-.642.133-1.195.397-1.66.265-.465.614-.846 1.047-1.143s.923-.518 1.468-.662a6.555 6.555 0 011.685-.217c.834 0 1.648.145 2.442.434s1.424.73 1.89 1.323zm13.024 1.54c0-.368-.052-.721-.156-1.058s-.27-.634-.494-.89c-.224-.257-.509-.462-.854-.614s-.75-.229-1.215-.229c-.866 0-1.6.26-2.202.782s-.935 1.191-.999 2.01zm2.888 1.3v.385c0 .128-.008.257-.024.385h-8.784a2.86 2.86 0 001.06 2.033c.304.25.649.446 1.034.59s.786.217 1.203.217c.722 0 1.332-.133 1.829-.397s.906-.63 1.227-1.095l1.925 1.54c-1.139 1.54-2.791 2.31-4.957 2.31-.898 0-1.724-.14-2.478-.421s-1.408-.678-1.962-1.191-.986-1.143-1.3-1.89c-.312-.745-.468-1.592-.468-2.538 0-.93.156-1.777.469-2.539a5.78 5.78 0 011.287-1.95 5.759 5.759 0 011.937-1.25 6.482 6.482 0 012.419-.446c.802 0 1.544.133 2.226.397.682.265 1.271.658 1.769 1.18s.886 1.17 1.167 1.949.42 1.688.42 2.731zm3.326-5.92h2.743v1.853h.048c.257-.577.702-1.087 1.336-1.528.634-.441 1.384-.662 2.25-.662.754 0 1.4.133 1.937.397s.979.614 1.324 1.047.597.93.758 1.492c.16.562.24 1.14.24 1.733V17h-2.887v-6.401c0-.337-.025-.69-.073-1.059s-.152-.702-.312-.998c-.16-.297-.381-.542-.662-.734s-.654-.29-1.12-.29c-.464 0-.866.093-1.202.278s-.614.42-.83.71-.382.621-.494.998-.168.758-.168 1.143V17h-2.888zm12.88 2.31V5.45h2.02V2.104h2.84V5.45h2.888v2.31h-2.888v5.367c0 .513.093.938.277 1.275.185.337.598.505 1.24.505.192 0 .4-.02.625-.06.225-.04.425-.1.602-.18l.096 2.262a4.748 4.748 0 01-.914.228c-.353.057-.69.085-1.011.085-.77 0-1.396-.109-1.877-.325-.481-.217-.862-.514-1.143-.89s-.473-.81-.578-1.3a7.556 7.556 0 01-.156-1.576V7.76zm16.705.77c-.256-.336-.61-.63-1.059-.878s-.938-.373-1.467-.373c-.466 0-.89.096-1.276.289s-.577.513-.577.962.212.767.637.951c.378.164.911.331 1.6.501l.265.065c.433.096.87.224 1.312.385.441.16.842.373 1.203.637s.654.594.878.987c.225.393.337.87.337 1.432 0 .706-.132 1.303-.397 1.792s-.617.887-1.059 1.192c-.44.304-.954.525-1.54.661s-1.19.205-1.817.205c-.898 0-1.772-.165-2.623-.493s-1.556-.799-2.117-1.408l1.9-1.78c.322.416.739.761 1.252 1.034s1.083.409 1.709.409c.208 0 .42-.024.637-.072s.418-.125.602-.229.333-.245.445-.421.169-.393.169-.65c0-.481-.22-.826-.662-1.034-.392-.186-.959-.371-1.7-.557l-.285-.07c-.434-.095-.855-.22-1.264-.372s-.774-.353-1.095-.602-.577-.557-.77-.926-.288-.826-.288-1.372c0-.642.132-1.195.397-1.66s.613-.846 1.046-1.143.923-.518 1.468-.662 1.107-.217 1.685-.217c.834 0 1.648.145 2.442.434s1.424.73 1.89 1.323z" fill-rule="nonzero"/></g></svg>