<svg height="23" viewBox="0 0 265 23" width="265" xmlns="http://www.w3.org/2000/svg" xmlns:xlink="http://www.w3.org/1999/xlink"><mask id="a" fill="#fff"><path d="m.17870556.05626047h12.21407584v16.78525103h-12.21407584z" fill="#fff" fill-rule="evenodd"/></mask><mask id="b" fill="#fff"><path d="m148.54022 12.1052577h4.966906v4.9666976h-4.966906z" fill="#fff" fill-rule="evenodd"/></mask><g fill="#fff" fill-rule="evenodd" transform="translate(0 -7)"><g transform="translate(0 7.168)"><path d="m9.38865116 6.91554233c-.38102325-.69417675-.94243721-1.27255814-1.62500465-1.67382326-.73882791-.42507907-1.58005581-.6388093-2.432-.61797209-.71739535-.00744186-1.42675349.15419535-2.07002791.47211162-.63017674.31464187-1.18653023.75906977-1.63214883 1.30470698-.47151628.58254884-.83348837 1.24546977-1.06865116 1.95691163-.25867907.77603721-.38786977 1.58958139-.38191628 2.40759069-.00386977.8022326.1372279 1.5985116.41614883 2.3504372.2583814.7105489.64654884 1.3666233 1.14455814 1.9354791.48907907.5489116 1.08413023.9933395 1.74943256 1.3058977.68911628.3253581 1.44282791.4905674 2.20457674.4837209.83348838.0163721 1.65655814-.1887256 2.38466977-.5950512.68881861-.3965023 1.26868837-.9573209 1.68811163-1.6324465v2.0301396h2.6263814v-16.587014h-3.00413024zm0 5.37599997c-.10597209.2878512-.26195349.5545675-.46050232.7882419-.20152558.2378418-.43222326.4494884-.68673489.6292837-.2548093.1803907-.53551628.3205954-.83259535.4164465-.28308837.0934698-.57897674.141693-.87694883.142954-.44353489.0029065-.88230698-.0887772-1.28744186-.2688703-.39144186-.1759255-.7435907-.4283534-1.03560931-.7424-.29797209-.3241674-.53045581-.7025116-.68524651-1.114493-.16818604-.4417488-.25213023-.9108837-.24766511-1.383293-.0011907-.4596093.07471628-.91594419.22474418-1.35054884.14050233-.41555349.35363721-.80282791.62928372-1.14426047.26552559-.32267907.59475349-.58701395.96714419-.77693023.38727442-.19408372.81562791-.29201861 1.24874419-.28606512.65875348.00446512 1.29518139.23873489 1.79973953.66232558.55367442.4352.98262326 1.00941396 1.24308837 1.66370233z" mask="url(#a)" transform="translate(33.934884 .241503)"/><path d="m17.6384298 6.35022884c-.2613582-.43966512-.6340465-.80282791-1.0799628-1.05287442-.4646698-.27088372-1.0567442-.40568444-1.7768186-.40483721-.8826047-.01637209-1.7530047.2048-2.520707.64089302-.7578791.45216744-1.3856744 1.09276279-1.8223628 1.8595721-.1410977-.68941396-.50426046-1.31363721-1.03412093-1.77652093-.53998139-.47687442-1.30292093-.71531163-2.28911627-.71531163-.90403721-.01726512-1.79795349.19557209-2.59780466.61797209-.75252093.40275349-1.37495814 1.01090233-1.79527441 1.75389767v-2.18314418h-2.72223256v11.79475345h3.01544186v-6.88937671c.19676279-.6912.59147907-1.30917209 1.13592558-1.77830697.53224186-.4491907 1.09097674-.67423256 1.67650232-.67512559.52747907-.01994418 1.02965582.22533954 1.33774884.65369303.32327442.43490232.48431628 1.12461395.48342326 2.06853954v6.6205767h3.01544187v-6.8664558c.1973581-.6909023.5873116-1.31125579 1.1246139-1.78813021.4575256-.43103256 1.0594233-.67572093 1.687814-.68673488.5274791-.02024186 1.0296558.22533953 1.3377488.65369302.3232745.43490233.4843163 1.12431628.4834233 2.06853957v6.6190883h3.0154755v-7.36297671c.0014547-.56528372-.0464709-1.12967442-.1429174-1.68662325-.0878139-.52271628-.2679069-1.02548837-.5322418-1.4848"/><path d="m48.676614 16.8791219h3.0142511v-11.78909771h-3.0142511z"/><path d="m63.080573 4.9611907v2.02418604c-.4197209-.67453023-.9995907-1.23475348-1.6881116-1.63066046-.7275163-.40751628-1.5508837-.61350698-2.3846698-.59653954-.7617488-.00714418-1.5154604.15836279-2.204279.48342326-.6650047.31345116-1.2600559.7575814-1.7497303 1.30589767-.4989023.56766512-.8870697 1.22373954-1.1442604 1.93428838-.2792186.75252093-.4203163 1.54909765-.4164466 2.35162795-.0056558.8177116.1232373 1.6306604.3819163 2.4061023.2348651.7123349.5971349 1.3758511 1.0686512 1.9584.4456186.5456372 1.0019721.9903628 1.6324465 1.304707.6426791.3179162 1.3514419.4795534 2.0685395.4721116.8519442.0208372 1.6931721-.192893 2.4317024-.6179721.6807814-.4033488 1.2401116-.9823256 1.6193488-1.6765023v2.204279h3.0157395v-11.9233488zm-.3834046 7.1096558c-.2574884.6578605-.6843535 1.2356465-1.2374326 1.6753116-.5039628.4244838-1.1406884.6593489-1.7994418.663814-.4331163.0053581-.8614698-.0928744-1.2490419-.2863628-.3777488-.1914046-.7108465-.459907-.9784558-.7882419-.2762419-.3408372-.4893768-.7284093-.6292837-1.1442604-.1500279-.4340093-.2259349-.8900465-.2247442-1.3490605-.0059535-.4768744.0779907-.95047441.2476651-1.39609301.1550884-.41138605.3875721-.78913489.6849488-1.11300465.2923163-.31404651.6444651-.56647442 1.035907-.7424.4048372-.18128372.843907-.27356279 1.2874419-.27028837.2979721.00119069.5938604.04941395.8769488.14288372.2964837.09674418.5771907.23694883.8325953.41644651.2548094.17979535.4858047.39173953.6864373.63077209.1982511.23337674.3542325.49949768.4608.78675349z"/><path d="m120.715133 17.10208c-.878735.0125023-1.750921-.151814-2.56506-.4834233-.734363-.3021395-1.399963-.7498418-1.956912-1.3163162-.540874-.5554605-.965656-1.213321-1.248744-1.9354791-.293805-.7370419-.442642-1.5237954-.439183-2.3173954-.00465-.8108651.140913-1.61547902.429062-2.37306042.276539-.72900465.697451-1.39460465 1.237432-1.9572093.558735-.5748093 1.228503-1.03025116 1.968521-1.33893954.823963-.33934883 1.708056-.50753488 2.599293-.49503255.8832-.01428838 1.759851.15419534 2.574884.49503255.727219.30898605 1.385377.76026047 1.935479 1.32762791.53254.55575814.946009 1.21421395 1.214512 1.93547907.276539.73138605.417637 1.50682788.41616 2.28881858 0 .1946791 0 .3819163-.011323.562307-.003274.1512186-.022028.3015442-.055665.4491907h-9.112707c.036018.4295442.150623.8489674.33786 1.2374326.171758.3491721.408707.6623255.698047.922493.282493.2542139.61053.4527628.966846.5852279.360186.1348465.741507.2036093 1.125805.2030139.593265.0005954 1.177005-.1506232 1.695256-.4390697.489079-.2455814.87546-.6560744 1.091572-1.1588465l2.586493.7153116c-.460205.9272558-1.183851 1.6982325-2.080149 2.2158884-.952558.5846325-2.088484.8769488-3.407479.8769488zm3.059795-7.10965581c-.075311-.88409303-.401265-1.59285582-.978455-2.12569303-1.180577-1.08770232-2.999666-1.08264186-4.174289.01131163-.275944.26403721-.500986.57689302-.663814.9227907-.175628.37417674-.278623.77871628-.303032 1.1915907z"/><path d="m134.332309 17.10208c-.878735.0122047-1.750921-.1521116-2.565061-.4834233-1.469023-.5986232-2.628167-1.7741395-3.205655-3.2517953-.292614-.7373395-.441154-1.524093-.43788-2.3173954-.00506-.8108651.140503-1.61547902.429247-2.37306042.276242-.72900465.696558-1.39460465 1.235944-1.9572093.559033-.57510698 1.229396-1.03054884 1.970009-1.33893954.823368-.33964651 1.707163-.50783255 2.597805-.49503255.8832-.0139907 1.759851.15449302 2.574884.49503255.726623.30928373 1.384186.76085582 1.933991 1.32762791.532539.55575814.946009 1.21421395 1.214511 1.93547907.277135.73138605.418828 1.50682788.417645 2.28881858 0 .1946791 0 .3819163-.011319.562307-.004465.1512186-.023517.3015442-.057154.4491907h-9.111218c.034828.4298419.149135.8495628.33786 1.2374326.171163.3488744.407814.6620279.696558.922493.282791.2548093.611424.4533581.968335.5852279.359591.1348465.740614.203907 1.124614.2030139.594158.0008931 1.178791-.1503255 1.697935-.4390697.489377-.2452837.875758-.6557768 1.091572-1.1588465l2.587684.7153116c-.459609.9314232-1.185042 1.7059721-2.084316 2.2260093-.953452.577786-2.08908.8668279-3.405991.8668279zm3.059795-7.10965581c-.074418-.88409303-.400372-1.59285582-.978456-2.12569303-.571832-.53105116-1.328521-.81741395-2.108428-.79836279-.389358-.00267907-.775441.06965582-1.137413.21313489-.342921.13752558-.657266.33786046-.926959.59088372-.276837.26344186-.502176.57629767-.663814.92249302-.176818.37417674-.280409.77871628-.304521 1.19188837z"/><path d="m149.361444 7.69780093c-.845693.00029767-1.681563.18068837-2.451944.52926512-.684056.30184186-1.235945.84093023-1.553563 1.51784186v7.13972089h-3.013954v-11.79624182h2.766586v2.5192186c.202121-.39263256.451572-.75906977.7424-1.09127442.275647-.31404651.584931-.59683721.922791-.84271628.307795-.22772093.644465-.41317209 1.001377-.55218604.311665-.12204651.643274-.18664186.978456-.19022289h.371795c.079181-.00028874.158065.00685545.236056.02144149z"/><path d="m75.3759553 17.10208c-.8522418.0211349-1.6937674-.1931907-2.432-.6194605-.6807813-.4021581-1.2401116-.9811348-1.6193488-1.6750139v6.8664558h-3.0139535v-16.58552559h2.6320372v2.02418605c.4194233-.67482791.9992931-1.23505116 1.6881117-1.63095814.7275162-.4072186 1.5508837-.6132093 2.3846697-.59653953.7641303-.00803721 1.520521.15746976 2.211721.48372093.6623255.31404651 1.255293.75758139 1.7437767 1.30470697.4986047.56826047.8867721 1.22463256 1.1442605 1.93547907.2792186.75222326.4203162 1.54909764.4164465 2.35162794.0056558.8177116-.1232372 1.6306604-.3819163 2.4061023-.2345674.7117395-.5968372 1.3749581-1.0686512 1.9572093-.4459162.5453395-1.0022697.9903628-1.6324465 1.3058977-.6438697.3185116-1.3541209.4801488-2.072707.4721116m-1.0100093-2.5650605c.4331163.0056558.8614698-.0925767 1.2490419-.2860651.3774512-.1955721.7096558-.4679442.9754791-.7995535.2762418-.3408372.4896744-.7284093.6295814-1.1445581.1497302-.4337116.2256372-.8897488.2244465-1.3487628.0047628-.4730047-.0791814-.9427349-.2473675-1.3847814-.155386-.41049302-.3881674-.78734883-.6852465-1.1100279-.2923162-.31434419-.6444651-.5667721-1.0359069-.74269768-.4048373-.18128372-.843907-.27356279-1.2874419-.27028837-.2979721.0011907-.5938605.04941395-.8769488.1431814-.2988652.09793488-.5813582.24022325-.8382512.42180465-.2548093.18009302-.4858047.39203721-.6864372.63106977-.1985489.23307906-.3545302.49949767-.4608.78675348v2.76360935c.2557023.6611348.6828651 1.2421953 1.2374325 1.6839441.5060466.4221024 1.1436652.6542884 1.8024186.6563721"/><path d="m82.5742884 16.8847777h3.0142511v-11.79624189h-3.0142511z"/><path d="m93.6123237 17.10208c-.8873674.013693-1.768186-.1547907-2.5876837-.4950326-.7331721-.3086883-1.3952-.7644279-1.9456-1.3389395-.5322419-.5617116-.948986-1.2228465-1.2261209-1.9456-.5703442-1.4999814-.5703442-3.1574326 0-4.65771162.2774325-.72245581.6941767-1.3835907 1.2261209-1.9456.5504-.57421395 1.2124279-1.02995349 1.9456-1.33893954.8194977-.33994418 1.7003163-.5084279 2.5876837-.49503255.8832-.0139907 1.7598512.15449302 2.5748837.49503255.728707.3107721 1.3868652.76651163 1.9339907 1.33893954.5322419.5620093.9486884 1.22314419 1.226121 1.9456.5703442 1.50027902.5703442 3.15773022 0 4.65771162-.2756465.7209674-.6882233 1.381507-1.2145117 1.9456-.5447441.5757023-1.2034976 1.0317395-1.9339907 1.3389395-.8194976.3399442-1.6997209.5084279-2.586493.4950326m-3.0812279-6.0969674c-.0068465.487293.0735256.9716093.2372465 1.4306232.1464558.4081116.3676279.7855628.6525024 1.1130047.270586.3101767.604279.5593302.9784558.7307907.7736558.3461953 1.6580465.3461953 2.4317023 0 .3744744-.1714605.7078698-.420614.9787535-.7307907.2863628-.3304186.5078325-.7117396.6522046-1.124614.1631256-.4622884.2434977-.9498791.2375442-1.4404465.0044651-.4828279-.075907-.9626791-.2375442-1.41752558-.1461581-.4119814-.3688186-.79270698-.6566697-1.12163721-.2720745-.31166512-.6069582-.56230698-.9826233-.73525581-.3813209-.17354419-.7956837-.26195349-1.2145116-.25897675-.4203163-.00327442-.8355721.08930233-1.2145116.27028837-.3729861.17890233-.7060838.43162791-.9787535.74269768-.2851721.33071628-.5048559.71293023-.6480372 1.12580465-.1610419.45454885-.2408187.93380465-.2357582 1.41603725"/><path d="m112.757105 16.8846586h-3.014251v-6.6217674c0-.94511632-.164912-1.63512562-.494735-2.07002794-.321488-.43103256-.834977-.67512559-1.371981-.65250233-.316131.00297674-.628689.064-.922791.1803907-.319702.12293953-.61946.29380465-.88826.50634418-.28428.22414884-.5376.48491163-.75401.77544186-.223256.29737675-.391144.63255814-.494735.98976745v6.89235348h-3.015739v-11.79624186h2.718065v2.18165582c.44413-.75787907 1.101991-1.36811163 1.891125-1.75389768.866531-.43013953 1.823554-.64625116 2.790996-.63077209.73347 0 1.333284.13484651 1.799739.40483721.445917.25213023.818307.61648372 1.079963 1.05704186.263144.46020465.442047.96357209.527777 1.48628837.096744.55724651.144372 1.12133954.143181 1.68662326z"/><path d="m32.1654177 8.64482233c-.2688-.72066977-.6819721-1.37882791-1.2145117-1.9339907-.5495069-.5667721-1.2064744-1.01804651-1.9325023-1.32762791-.8150325-.34143256-1.6916837-.50991628-2.5751814-.49503256-.8906418-.01339535-1.7744372.1547907-2.5978046.49503256-.7450791.30809302-1.419014.76561861-1.9798326 1.34459535-.5399814.56290233-.960893 1.22909767-1.2374325 1.9584-.2887442.75787907-.434307 1.56249303-.4292466 2.37335813-.0032744.7936.1458605 1.5800558.4393675 2.3173954.576893 1.4776558 1.7363349 2.6528744 3.2056558 3.2503069.8138419.3316093 1.6863256.4959256 2.5650605.4834233 1.3189953 0 2.4546232-.2860651 3.407479-.8581954.9001675-.5206325 1.6258977-1.2960744 2.0858047-2.228986l-2.5879814-.715014c-.2155163.5021768-.6016.9120745-1.0900837 1.1570605-.5194419.2896372-1.1046698.4408558-1.6994233.4393674-.3837023.0008931-.7647256-.0672744-1.1243163-.2018232-.7275162-.2711814-1.3234604-.8108651-1.6651907-1.5077209-.1875348-.3881675-.3018418-.8078884-.3375628-1.2374326h9.1124094c.0321488-.1482419.0509023-.2991628.0559627-.4506791 0-.180093.0114023-.3661395.0114023-.5620093.0040768-.7855628-.1355325-1.56517206-.412072-2.30042787zm-8.8120558 1.35054883c.0241116-.41346976.1271069-.81860465.3033302-1.19307907.1244279-.25867907.2830884-.4992.4721116-.71531162.061321-.07025117.1244279-.1431814.1917023-.20033489.2738605-.25183256.5899907-.45335814.9341024-.59505116.0878139-.03601861.1777116-.06757209.2688-.09436279.2818976-.08126512.5736186-.12174884.8668279-.12026047.7778232-.01845581 1.5321302.26671628 2.1030697.79538605.0839442.07828837.1634233.16074419.2387349.24736744.3066047.35929302.5242047.78556279.6352372 1.24457675.0291721.11609302.0520931.23367441.0687628.35185116.0142884.09168372.0270884.18336744.0342326.28636274z"/><path d="m151.023717 12.1052577c1.371386 0 2.483498 1.1118139 2.483498 2.4834976 0 1.3713861-1.112112 2.4832-2.483498 2.4832-1.371684 0-2.483497-1.1118139-2.483497-2.4832 0-1.3716837 1.111813-2.4834976 2.483497-2.4834976" mask="url(#b)"/></g><path d="m170.899968 12.44928v1.612288h.072192c.144385-.2245985.332884-.4532042.565504-.685824s.517374-.4411724.854272-.625664.717907-.3368954 1.14304-.457216.902397-.18048 1.431808-.18048c.81818 0 1.572178.1564144 2.262016.469248s1.283411.7419706 1.780736 1.287424.882345 1.1871536 1.155072 1.92512.409088 1.5320704.409088 2.382336-.132351 1.6483803-.397056 2.394368-.641704 1.3957092-1.131008 1.949184-1.082877.9946437-1.780736 1.32352-1.487953.493312-2.370304.493312c-.81818 0-1.568167-.1684463-2.249984-.505344s-1.207209-.7941091-1.576192-1.371648h-.048128v7.315456h-2.88768v-17.32608zm6.73792 5.727232c0-.4491969-.068181-.8943765-.204544-1.335552s-.340905-.8382276-.613632-1.191168-.617641-.6376949-1.034752-.854272-.906408-.324864-1.467904-.324864c-.529411 0-1.002665.1122975-1.419776.336896s-.774057.5133636-1.070848.866304-.521386.7540031-.673792 1.2032-.228608.8983871-.228608 1.347584.076202.8943765.228608 1.335552.377001.8382276.673792 1.191168.653737.6376949 1.070848.854272.890365.324864 1.419776.324864c.561496 0 1.050793-.1122975 1.467904-.336896s.762025-.5133636 1.034752-.866304.477269-.7540031.613632-1.2032.204544-.8983871.204544-1.347584zm6.261988-5.727232h2.76736v1.92512h.048128c.320855-.6737954.770045-1.2192406 1.347584-1.636352.577538-.4171114 1.251324-.625664 2.021376-.625664.112299 0 .232618.0040106.36096.012032s.240639.0280745.336896.06016v2.64704c-.192513-.0481282-.356949-.0802133-.493312-.096256-.136364-.0160427-.268714-.024064-.397056-.024064-.657753 0-1.187156.1203188-1.588224.36096-.401069.2406412-.713898.5294063-.938496.866304-.224599.3368977-.377003.6818116-.457216 1.034752-.080214.3529404-.12032.6336843-.12032.84224v6.184448h-2.88768zm16.994531 4.620288c0-.3689832-.052138-.7219183-.156416-1.058816s-.268713-.633684-.493312-.890368c-.224598-.256684-.509353-.4612259-.854272-.613632s-.749992-.228608-1.215232-.228608c-.866308 0-1.600253.2606907-2.201856.78208s-.934485 1.1911639-.998656 2.009344zm2.88768 1.299456v.385024c0 .128342-.008021.256682-.024064.385024h-8.78336c.032086.4171114.140373.7981209.324864 1.14304.184492.3449191.42914.6417054.733952.890368s.649726.4451833 1.034752.589568.786089.216576 1.2032.216576c.721924 0 1.331539-.1323507 1.828864-.397056s.906409-.6296723 1.227264-1.094912l1.92512 1.540096c-1.139035 1.5401037-2.791413 2.310144-4.957184 2.310144-.898394 0-1.724583-.1403719-2.478592-.42112s-1.407741-.6778001-1.961216-1.191168-.986622-1.1430363-1.299456-1.889024c-.312833-.7459877-.469248-1.5922299-.469248-2.538752 0-.9304793.156415-1.7767215.469248-2.538752.312834-.7620305.741971-1.411752 1.287424-1.949184.545454-.537432 1.191164-.9545372 1.937152-1.251328s1.552124-.445184 2.418432-.445184c.802137 0 1.544103.1323507 2.22592.397056s1.271379.6577467 1.768704 1.179136.886356 1.1711108 1.167104 1.949184.42112 1.6884855.42112 2.731264zm9.655012-2.839552c-.256684-.3368977-.609619-.6296734-1.058816-.878336s-.938494-.372992-1.467904-.372992c-.46524 0-.890366.096255-1.275392.288768s-.577536.5133631-.577536.96256.212563.7660364.637696.950528c.377896.1639925.911062.3311518 1.599512.5014817l.265448.0640223c.433154.0962565.870312.2245965 1.311488.385024.441175.1604275.842238.3729907 1.2032.637696.360961.2647053.653737.5935767.878336.986624.224598.3930473.336896.8703119.336896 1.431808 0 .7058809-.132351 1.3034642-.397056 1.792768-.264706.4893038-.617641.8863558-1.058816 1.191168-.441176.3048122-.954536.5253967-1.540096.66176-.585561.1363633-1.191165.204544-1.816832.204544-.898394 0-1.772711-.1644357-2.622976-.493312-.850266-.3288763-1.556136-.7981196-2.117632-1.407744l1.901056-1.780736c.320855.4171114.73796.7620253 1.251328 1.034752s1.082877.409088 1.708544.409088c.208555 0 .421119-.0240638.637696-.072192s.417108-.1243301.6016-.228608c.184491-.1042779.332884-.2446498.445184-.42112.112299-.1764702.168448-.393044.168448-.649728 0-.4812824-.220585-.8261963-.66176-1.034752-.392156-.1853829-.958596-.3707632-1.699334-.5561455l-.285946-.0695185c-.433154-.0962565-.85427-.2205859-1.26336-.372992s-.774057-.3529374-1.094912-.6016-.577535-.5574808-.770048-.926464-.288768-.8261946-.288768-1.371648c0-.6417099.13235-1.1951763.397056-1.660416.264705-.4652397.61363-.8462492 1.046784-1.14304s.92245-.5173753 1.467904-.66176c.545453-.1443847 1.106941-.216576 1.68448-.216576.834223 0 1.64838.1443826 2.442496.433152s1.423784.7299384 1.889024 1.32352zm13.023971 1.540096c0-.3689832-.052138-.7219183-.156416-1.058816s-.268713-.633684-.493312-.890368c-.224598-.256684-.509353-.4612259-.854272-.613632s-.749992-.228608-1.215232-.228608c-.866308 0-1.600253.2606907-2.201856.78208s-.934485 1.1911639-.998656 2.009344zm2.88768 1.299456v.385024c0 .128342-.008021.256682-.024064.385024h-8.78336c.032086.4171114.140373.7981209.324864 1.14304.184492.3449191.42914.6417054.733952.890368s.649726.4451833 1.034752.589568.786089.216576 1.2032.216576c.721924 0 1.331539-.1323507 1.828864-.397056s.906409-.6296723 1.227264-1.094912l1.92512 1.540096c-1.139035 1.5401037-2.791413 2.310144-4.957184 2.310144-.898394 0-1.724583-.1403719-2.478592-.42112s-1.407741-.6778001-1.961216-1.191168-.986622-1.1430363-1.299456-1.889024c-.312833-.7459877-.469248-1.5922299-.469248-2.538752 0-.9304793.156415-1.7767215.469248-2.538752.312834-.7620305.741971-1.411752 1.287424-1.949184.545454-.537432 1.191165-.9545372 1.937152-1.251328.745988-.2967908 1.552124-.445184 2.418432-.445184.802138 0 1.544104.1323507 2.22592.397056.681817.2647053 1.271379.6577467 1.768704 1.179136s.886356 1.1711108 1.167104 1.949184.42112 1.6884855.42112 2.731264zm3.32618-5.919744h2.743296v1.852928h.048128c.256684-.5775389.701863-1.0868885 1.335552-1.528064.633688-.4411755 1.383675-.66176 2.249984-.66176.754009 0 1.39972.1323507 1.937152.397056s.978601.6136298 1.32352 1.046784.597588.9304719.758016 1.491968c.160427.5614961.24064 1.1390264.24064 1.732608v7.2192h-2.88768v-6.401024c0-.3368977-.024064-.6898328-.072192-1.058816s-.152405-.7018652-.312832-.998656c-.160428-.2967908-.381012-.541439-.66176-.733952s-.653737-.288768-1.118976-.288768c-.46524 0-.866302.0922444-1.2032.276736s-.613631.4211186-.830208.709888-.381013.6216514-.493312.998656-.168448.7580141-.168448 1.14304v6.352896h-2.88768zm12.879587 2.310144v-2.310144h2.021376v-3.344896h2.839552v3.344896h2.88768v2.310144h-2.88768v5.366272c0 .5133679.092245.9384943.276736 1.275392.184492.3368977.597587.505344 1.239296.505344.192513 0 .401066-.0200531.625664-.06016.224599-.0401069.42513-.1002663.6016-.18048l.096256 2.262016c-.256684.0962565-.561491.1724584-.914432.228608-.35294.0561496-.689833.084224-1.010688.084224-.770051 0-1.395709-.1082869-1.876992-.324864-.481282-.2165771-.862292-.5133634-1.14304-.890368s-.473258-.8101522-.577536-1.299456c-.104277-.4893038-.156416-1.0146959-.156416-1.576192v-5.390336zm16.705764.770048c-.256684-.3368977-.609619-.6296734-1.058816-.878336s-.938493-.372992-1.467904-.372992c-.46524 0-.890366.096255-1.275392.288768s-.577536.5133631-.577536.96256.212563.7660364.637696.950528c.377896.1639925.911062.3311518 1.599512.5014817l.265448.0640223c.433154.0962565.870312.2245965 1.311488.385024.441175.1604275.842238.3729907 1.2032.637696s.653737.5935767.878336.986624c.224598.3930473.336896.8703119.336896 1.431808 0 .7058809-.132351 1.3034642-.397056 1.792768s-.617641.8863558-1.058816 1.191168c-.441176.3048122-.954536.5253967-1.540096.66176s-1.191165.204544-1.816832.204544c-.898394 0-1.77271-.1644357-2.622976-.493312s-1.556136-.7981196-2.117632-1.407744l1.901056-1.780736c.320855.4171114.73796.7620253 1.251328 1.034752s1.082877.409088 1.708544.409088c.208556 0 .421119-.0240638.637696-.072192s.417108-.1243301.6016-.228608.332885-.2446498.445184-.42112.168448-.393044.168448-.649728c0-.4812824-.220585-.8261963-.66176-1.034752-.392156-.1853829-.958596-.3707632-1.699333-.5561455l-.285947-.0695185c-.433154-.0962565-.85427-.2205859-1.26336-.372992s-.774057-.3529374-1.094912-.6016-.577535-.5574808-.770048-.926464-.288768-.8261946-.288768-1.371648c0-.6417099.132351-1.1951763.397056-1.660416s.61363-.8462492 1.046784-1.14304.922451-.5173753 1.467904-.66176 1.106941-.216576 1.68448-.216576c.834223 0 1.64838.1443826 2.442496.433152s1.423784.7299384 1.889024 1.32352z" fill-rule="nonzero"/></g></svg>