<svg width="236" height="122" xmlns="http://www.w3.org/2000/svg"><path d="M115.268 76.13l.07 8.779-1.074.205c-.32-2.832-.924-4.626-1.811-5.384-.887-.757-2.887-.837-6-.24l-3.542.678-.036 13.75 2.952-.565c2.147-.412 3.416-.998 3.808-1.76.392-.761.699-2.016.92-3.765l1.02-.195-.024 10.91-1.02.195c-.207-1.666-.509-2.805-.904-3.415-.395-.61-1.666-.71-3.813-.299l-2.952.566-.035 12.304a3.74 3.74 0 00.058.879c.137.715.46 1.145.97 1.288.51.144 1.176.137 2-.021l.267-.052c2.934-.562 5.085-1.438 6.452-2.627 1.367-1.19 2.492-3.742 3.373-7.658l1.02-.195-.993 10.206-26.245 5.03-.022-1.276c1.253-.24 2.052-.616 2.4-1.127.347-.512.518-1.454.515-2.825l.057-24.382c.002-.372-.005-.704-.024-.997a6.277 6.277 0 00-.09-.762c-.117-.608-.384-.983-.801-1.126-.375-.128-.944-.13-1.706-.004l-.26.047c-1.253.24-2.185.65-2.797 1.231-.612.581-1.192 1.573-1.739 2.977l-12.335 32.02-.269.052-6.827-21.393-9.113 24.448-.268.052-9.498-27.781c-.432-1.29-.842-2.12-1.228-2.49-.387-.372-1.206-.438-2.458-.198l.031-1.285 15.35-2.942-.032 1.286c-.93.178-1.55.38-1.859.606-.309.226-.402.661-.278 1.306.048.25.119.524.213.821.094.297.193.621.297.972l4.095 13.237 3.912-10.654-1.244-3.879c-.446-1.36-.895-2.202-1.346-2.524-.451-.321-1.053-.41-1.804-.266l.032-1.286 15.35-2.942-.033 1.286c-1.252.24-2.063.507-2.433.8-.37.294-.48.834-.33 1.622a9.4 9.4 0 00.15.638c.066.247.145.51.236.79l3.826 13.288 5.64-14.991c.146-.399.245-.752.298-1.059.052-.307.054-.585.006-.836-.116-.608-.528-.965-1.234-1.07-.707-.106-1.614-.053-2.724.16l.032-1.286 10.412-1.996 25.44-4.876zm28.015-5.369l.069 8.778-1.073.206c-.32-2.832-.924-4.627-1.811-5.384-.887-.758-2.887-.838-6-.241l-3.542.679-.036 13.75 2.952-.566c2.147-.411 3.416-.998 3.808-1.76.392-.76.699-2.015.92-3.764l1.02-.196-.024 10.91-1.02.196c-.207-1.667-.51-2.805-.904-3.416-.395-.61-1.666-.71-3.813-.298l-2.952.566-.034 12.303a3.71 3.71 0 00.057.88c.137.715.46 1.145.97 1.288.51.143 1.176.136 2-.022l.267-.051c2.934-.562 5.085-1.438 6.452-2.628 1.367-1.189 2.491-3.741 3.373-7.657l1.02-.195-.993 10.205-26.245 5.03-.022-1.275c1.253-.24 2.052-.616 2.4-1.128.347-.511.518-1.453.515-2.825l.057-24.382c.003-.371-.005-.703-.025-.996a6.28 6.28 0 00-.09-.762c-.116-.608-.383-.984-.8-1.127-.417-.142-1.073-.128-1.967.044l.032-1.286 25.44-4.876zm19.267-3.693l-.032 1.286c-1.252.24-2.052.616-2.399 1.128-.347.511-.519 1.453-.516 2.825l-.056 24.382c.033.364.048.686.046.965-.002.278.02.543.068.793.117.608.375.986.774 1.132.399.146 1.063.13 1.994-.049l.022 1.276-15.994 3.065-.022-1.275c1.252-.24 2.052-.616 2.399-1.128.347-.511.52-1.453.516-2.825l.056-24.382a13.74 13.74 0 00-.024-.997 6.276 6.276 0 00-.09-.761c-.117-.609-.384-.984-.8-1.127-.417-.142-1.073-.128-1.968.043l.032-1.285 15.994-3.066zm33.865-6.49l-.032 1.285c-1.252.24-2.051.616-2.399 1.128-.347.511-.519 1.453-.515 2.825l-.049 24.714a3.516 3.516 0 00.058.88c.137.715.46 1.145.97 1.288.51.143 1.176.136 1.999-.022l.268-.051c2.576-.494 4.449-1.418 5.617-2.773 1.168-1.356 2.182-3.952 3.042-7.79l1.234-.236-1.007 10.71-25.279 4.845-12.666 2.427-7.858-15.742c.416-.154.907-.499 1.472-1.034s1.194-1.314 1.889-2.337l7.278-10.798c.318-.47.537-.873.658-1.212.12-.338.16-.615.12-.83-.083-.429-.435-.667-1.056-.715-.621-.048-1.362.01-2.22.175l.032-1.286 10.948-2.098-.032 1.286c-1.288.246-2.422.714-3.403 1.403-.98.689-1.948 1.737-2.903 3.144l-5.25 7.739 8.093 14.64c.908 1.644 1.707 2.761 2.395 3.353.676.58 1.52.78 2.534.599l-.053.01c1.252-.24 2.052-.616 2.4-1.127.346-.512.518-1.454.515-2.826l.056-24.381a13.75 13.75 0 00-.024-.997 6.308 6.308 0 00-.09-.762c-.117-.608-.383-.984-.8-1.126-.417-.143-1.073-.129-1.967.043l.032-1.286 15.993-3.066zM22.41 57.872l-.209 9.944-1.116.27c-.204-2.224-1.06-4.073-2.566-5.546-1.506-1.473-3.368-1.997-5.587-1.572-1.431.274-2.537.94-3.317 1.999-.78 1.059-1.047 2.231-.8 3.52.2 1.037.629 1.827 1.289 2.368.66.54 1.41.972 2.25 1.293l3.696 1.573c2.293.933 4.11 1.939 5.447 3.018 1.338 1.079 2.19 2.567 2.553 4.463.651 3.399-.19 6.556-2.525 9.47-2.335 2.914-5.488 4.752-9.46 5.513-2.361.453-4.206.361-5.533-.275s-2.367-.882-3.118-.738c-.465.09-.837.374-1.116.854a5.833 5.833 0 00-.63 1.651l-.912.175.172-12.163 1.322-.365c.074 1.359.36 2.658.858 3.898.497 1.24 1.144 2.294 1.941 3.161a7.583 7.583 0 002.793 1.94c1.064.427 2.223.52 3.475.28 1.789-.342 3.124-1.118 4.006-2.325.881-1.208 1.174-2.58.88-4.12-.234-1.216-.751-2.127-1.554-2.734-.803-.606-1.909-1.201-3.319-1.784L7.1 79.892c-1.246-.503-2.43-1.26-3.55-2.269-1.121-1.009-1.877-2.533-2.268-4.573-.26-1.36-.208-2.779.157-4.259a11.964 11.964 0 011.909-4.121c.907-1.268 2.076-2.373 3.51-3.316 1.433-.942 3.062-1.588 4.886-1.938 2.147-.411 3.89-.365 5.23.139 1.338.503 2.348.69 3.028.56.43-.082.75-.292.964-.63.213-.338.408-.82.585-1.448l.859-.164zm213.184-4.805l-.032 1.286c-1.252.24-2.242.69-2.97 1.348-.726.659-1.427 1.646-2.102 2.963l-6.167 12.532-.051 13.086.037.772c.012.257.038.493.08.708.137.716.48 1.15 1.029 1.305.549.154 1.485.105 2.809-.149l.022 1.276L210 91.692l-.022-1.275c1.682-.323 2.768-.754 3.258-1.292.49-.54.733-1.495.73-2.867l.064-13.31-6.501-9.827c-.833-1.25-1.522-2.036-2.066-2.358-.544-.323-1.192-.412-1.943-.268l.032-1.286 16.262-3.116-.032 1.285c-1.11.213-1.9.439-2.374.678-.474.239-.666.591-.577 1.056.048.25.16.545.336.882.176.337.416.718.72 1.142l5.464 8.189 4.861-10.057a4.56 4.56 0 00.443-1.17c.079-.367.094-.676.046-.927-.09-.465-.427-.771-1.011-.919-.585-.147-1.378-.125-2.38.067l.032-1.286 10.25-1.965zM55.268 51.352l.107 10.719-1.02.195c-.343-3.532-1.078-5.766-2.202-6.7-1.125-.934-3.012-1.148-5.66-.64l-.858.165-.081 27.446.036.772c.013.258.04.493.08.708.138.716.48 1.15 1.03 1.305.549.155 1.485.105 2.809-.149l.022 1.276-18.248 3.497-.022-1.275c1.682-.323 2.768-.753 3.258-1.292.49-.54.733-1.495.73-2.867l.081-27.446-.859.164c-2.433.467-4.258 1.391-5.477 2.775-1.219 1.383-2.032 3.913-2.44 7.59l-1.02.195.215-10.78c.408-.004.93-.039 1.566-.105.636-.067 1.634-.23 2.994-.49l20.395-3.91c1.359-.26 2.347-.477 2.963-.651.616-.174 1.15-.34 1.6-.502zm60.16-11.252l.069 8.778-1.074.206c-.32-2.832-.923-4.627-1.81-5.384-.887-.757-2.887-.838-6-.241l-3.542.679-.036 13.75 2.952-.566c2.147-.411 3.416-.998 3.808-1.76.392-.76.698-2.015.92-3.764l1.02-.196-.024 10.91-1.02.196c-.208-1.666-.51-2.805-.905-3.415-.395-.611-1.666-.71-3.813-.299l-2.951.566-.035 12.303a3.743 3.743 0 00.057.88c.138.715.461 1.145.97 1.288.51.143 1.177.136 2-.021l.268-.052c2.934-.562 5.085-1.438 6.452-2.628 1.367-1.189 2.491-3.741 3.373-7.657l1.02-.195-.994 10.206-26.243 5.03-12.666 2.427-3.784-9.29c-.644-1.62-1.226-2.863-1.744-3.728-.518-.865-1.28-1.312-2.288-1.342l-.107.021-.026 11.189c.033.364.048.686.046.965-.002.278.02.543.069.793.116.609.374.986.773 1.132.399.146 1.064.13 1.994-.048l.022 1.275-15.994 3.066-.022-1.276c1.253-.24 2.052-.616 2.4-1.128.346-.511.518-1.453.515-2.825l.056-24.382c.003-.371-.005-.704-.024-.996a6.319 6.319 0 00-.09-.762c-.117-.609-.383-.984-.8-1.127-.417-.142-1.073-.128-1.967.043l.032-1.285 13.041-2.5c4.58-.878 8.373-1.02 11.38-.428 3.007.592 4.778 2.283 5.313 5.074.452 2.362-.136 4.468-1.766 6.32-1.63 1.852-3.67 3.347-6.123 4.484.905.272 1.802.74 2.69 1.404.887.665 1.668 1.786 2.34 3.363l1.739 3.84c.948 2.044 1.762 3.344 2.444 3.9.629.512 1.394.707 2.297.583l.227-.038c1.252-.24 2.052-.616 2.4-1.127.346-.512.518-1.454.515-2.826l.056-24.381c.003-.372-.005-.704-.024-.997a6.253 6.253 0 00-.09-.762c-.117-.608-.384-.984-.8-1.126-.417-.143-1.073-.129-1.967.043l.031-1.286 25.44-4.876zm28.712-5.503l.07 8.778-1.074.206c-.32-2.832-.924-4.627-1.811-5.384-.887-.757-2.887-.838-6-.241l-3.542.679-.035 13.75 2.951-.566c2.147-.411 3.416-.998 3.809-1.76.391-.76.698-2.016.92-3.764l1.019-.196-.023 10.91-1.02.196c-.208-1.667-.51-2.805-.905-3.416-.395-.61-1.666-.71-3.813-.298l-2.952.566-.034 12.303a3.71 3.71 0 00.057.88c.137.715.46 1.144.97 1.288.51.143 1.176.136 2-.022l.268-.051c2.933-.562 5.084-1.438 6.451-2.628 1.367-1.189 2.492-3.741 3.373-7.657l1.02-.196-.993 10.206-26.245 5.03-.021-1.275c1.252-.24 2.052-.616 2.399-1.128.347-.511.519-1.453.515-2.825l.057-24.382c.003-.371-.005-.703-.024-.996a6.287 6.287 0 00-.09-.762c-.117-.608-.384-.984-.8-1.127-.418-.142-1.073-.128-1.968.044l.032-1.286 25.44-4.876zm31.935-6.4l.107 10.72-1.02.195c-.343-3.533-1.077-5.766-2.202-6.7-1.125-.935-3.01-1.148-5.659-.64l-.858.164-.081 27.447.036.772c.012.257.04.493.08.708.137.715.48 1.15 1.03 1.305.548.154 1.485.104 2.809-.15l.021 1.276-18.247 3.498-.022-1.276c1.682-.322 2.767-.753 3.258-1.292.49-.539.733-1.495.73-2.866l.08-27.447-.858.164c-2.433.467-4.258 1.392-5.477 2.775-1.219 1.384-2.032 3.914-2.44 7.59l-1.02.195.215-10.78c.407-.003.93-.039 1.566-.105s1.634-.23 2.994-.49l20.394-3.91c1.36-.26 2.347-.477 2.964-.65.615-.174 1.15-.342 1.6-.502zM69.82 50.345l-.43.083-.056 15.09.59-.114c.787-.151 1.608-.512 2.463-1.084a7.845 7.845 0 002.188-2.228c.604-.913 1.052-2.01 1.345-3.29.292-1.28.288-2.707-.014-4.282-.37-1.932-1.12-3.18-2.248-3.742-1.128-.563-2.407-.707-3.838-.433zM61.904 14.36l-.032 1.286c-1.252.24-2.184.65-2.796 1.231-.612.581-1.192 1.573-1.739 2.976L45.002 51.874l-.269.051-6.826-21.393-9.114 24.448-.268.052-9.498-27.781c-.432-1.29-.842-2.12-1.228-2.491-.387-.371-1.206-.437-2.458-.197l.031-1.286 15.35-2.942-.032 1.286c-.93.179-1.55.38-1.859.607-.309.226-.402.661-.278 1.305.048.25.119.525.213.822.094.297.193.621.298.972l4.095 13.237L37.07 27.91l-1.244-3.879c-.446-1.361-.895-2.202-1.346-2.524-.451-.322-1.053-.41-1.804-.266l.032-1.286 15.35-2.942-.032 1.286c-1.253.24-2.064.507-2.435.8-.37.294-.48.834-.329 1.621.035.179.085.392.15.64.067.246.145.51.236.789l3.826 13.288 5.64-14.991c.146-.4.245-.752.298-1.06.052-.306.055-.585.007-.835-.117-.608-.529-.965-1.235-1.071-.707-.106-1.614-.052-2.724.16l.032-1.286 10.412-1.995zm44.062-8.445l-.032 1.286c-1.252.24-2.051.616-2.398 1.127-.348.512-.52 1.454-.516 2.825l-.049 24.714a3.745 3.745 0 00.058.88c.137.715.46 1.145.97 1.288.51.144 1.176.137 1.999-.021l.268-.052c2.576-.493 4.449-1.418 5.617-2.773 1.169-1.356 2.182-3.952 3.042-7.789l1.235-.237-1.008 10.71-25.171 4.823v.001l-16.745 3.21-.022-1.276c1.217-.233 2.039-.493 2.466-.779.428-.286.576-.768.446-1.448a3.797 3.797 0 00-.22-.71 9.978 9.978 0 01-.314-.913l-2.57-7.019-7.996 1.533-2.389 7.858c-.11.392-.19.75-.239 1.075-.049.325-.05.613-.001.863.11.572.455.923 1.036 1.053.581.13 1.409.092 2.482-.114l.022 1.276-10.036 1.923-.022-1.275c1.252-.24 2.223-.64 2.914-1.199.69-.559 1.249-1.565 1.675-3.02l9.701-30.96 5.582-1.069 10.522 27.028c.504 1.276.994 2.091 1.47 2.445.469.349 1.193.432 2.174.25l-.066.013c1.253-.24 2.052-.616 2.4-1.127.347-.512.518-1.454.515-2.825l.056-24.382c.004-.372-.005-.704-.024-.997a6.31 6.31 0 00-.09-.762c-.116-.608-.383-.983-.8-1.126-.417-.143-1.073-.129-1.967.043l.032-1.286 15.993-3.065zm28.23-5.411l-.032 1.286c-1.252.24-2.051.616-2.398 1.127-.348.512-.52 1.454-.516 2.826l-.049 24.714a3.55 3.55 0 00.058.88c.137.715.46 1.144.97 1.288.51.143 1.176.136 2-.022l.267-.051c2.576-.494 4.449-1.419 5.617-2.774 1.168-1.355 2.182-3.951 3.042-7.789l1.234-.236-1.007 10.71-25.279 4.844-.022-1.275c1.253-.24 2.052-.616 2.4-1.128.347-.511.518-1.453.515-2.825l.057-24.382c.003-.371-.005-.704-.024-.997a6.31 6.31 0 00-.09-.761c-.117-.609-.384-.984-.801-1.127-.417-.143-1.073-.128-1.967.043l.032-1.286L134.196.503zM68.922 22.528l-3.356 10.937 6.87-1.316-3.514-9.62z" fill="#030203" fill-rule="evenodd"/></svg>