<svg height="35" viewBox="0 0 28 35" width="28" xmlns="http://www.w3.org/2000/svg"><path d="m22.8145925 17.8235784c.0471455 5.0770981 4.4539027 6.7666086 4.5027256 6.7881146-.0372611.1190919-.7041275 2.4076559-2.3216917 4.7715808-1.3983705 2.0437908-2.8495776 4.0799736-5.1357454 4.122147-2.2463907.0413945-2.9687294-1.3320554-5.5369915-1.3320554-2.5674833 0-3.3700352 1.2899419-5.49649538 1.3735099-2.20673332.0835679-3.88719815-2.2099683-5.29707052-4.2462709-2.88102792-4.1652188-5.08272919-11.7699033-2.12640025-16.9031926 1.46863952-2.54921216 4.09321264-4.16348158 6.94195158-4.20487617 2.16695617-.04133469 4.21224457 1.45785655 5.53699147 1.45785655 1.3239082 0 3.8093811-1.80291136 6.4223326-1.53812972 1.0938716.04552806 4.1644401.44186185 6.1360449 3.32786194-.158869.0984844-3.6637512 2.1388605-3.6256514 6.383454m-4.2218294-12.46696196c1.1715689-1.41813931 1.960103-3.39232007 1.7449828-5.35661644-1.6887317.06787276-3.7307852 1.12532197-4.9420714 2.54268251-1.0855448 1.25513686-2.0362427 3.26406271-1.779728 5.18948051 1.882286.14562991 3.8051878-.95650869 4.9768166-2.37554658" fill="#ff0045" transform="translate(.122093 .505814)"/></svg>