<svg height="19" viewBox="0 0 51 19" width="51" xmlns="http://www.w3.org/2000/svg"><g fill="#ff0045" transform="translate(.319767 .312)"><path d="m2.51684985 16.1114609h1.27322393c1.86927314 0 2.17535062-.9851083 2.17535062-4.1167801v-6.2621603c0-2.70273239-.23138277-3.61152353-2.37677502-3.61152353h-1.07179953zm-2.46300355-16.11146076h4.06426932c4.09115601 0 4.47731594 1.43171028 4.47731594 6.73524481v5.42018255c0 4.6720045-.93961914 6.0776829-4.92849564 6.0776829h-3.61308962z"/><path d="m9.58007723.00000014h6.89917767v2.16735488h-4.4352461v5.71716346h4.1063365v2.13588952h-4.1063365v6.0469142h4.4352461v2.1657882h-6.89917767z"/><path d="m17.4650614.00000014h6.8987123v2.16735488h-4.4348409v5.71716346h4.1065691v2.13588952h-4.1065691v6.0469142h4.4348409v2.1657882h-6.8987123z"/><path d="m34.3830187.00000014h6.8992379v2.16735488h-4.4353008v5.71716346h4.107322v2.13588952h-4.107322v6.0469142h4.4353008v2.1657882h-6.8992352v-18.23311026"/><path d="m25.3490545 16.0974246 5.6764885-13.96243502h-5.6764885v-2.13496207h8.0482782v2.13496207l-5.5786057 13.96243502h5.5786057v2.1356863l-8.0482782-.0011224v-2.1345546"/><path d="m44.731877 8.04813258h.7643313c1.9951323 0 2.2993563-.24627763 2.2993563-2.97317383 0-2.70273189-.2422212-2.9410704-1.8062217-2.9410704h-1.2574659zm-2.4639262-8.04810507h3.9421691c3.6872012 0 3.9456486.93932996 3.9456486 4.92936718 0 2.44874792-.231213 3.64617633-2.3022528 4.27705149 1.7169873.176508 2.3051547 1.07289902 2.3051547 2.78936332v3.9646678c0 .6575714.0046267 1.5136539.1587715 2.2715019h-2.4639262c-.2538153-.4549788-.1628369-.902717-.1628369-1.6354347v-4.1158586c0-1.7173631-.3262404-2.1327313-1.9933938-2.1327313h-.965408v7.8851563l-2.4639262-.0011224z"/></g></svg>