<svg height="37" width="33" xmlns="http://www.w3.org/2000/svg" xmlns:xlink="http://www.w3.org/1999/xlink"><linearGradient id="a" x1="0%" x2="100.018%" y1="50.02%" y2="50.02%"><stop offset="0" stop-color="#63be6b"/><stop offset=".506" stop-color="#5bbc6a"/><stop offset="1" stop-color="#4ab96a"/></linearGradient><linearGradient id="b" x1="-.027%" x2="99.942%" y1="50.012%" y2="50.012%"><stop offset="0" stop-color="#3ec6f2"/><stop offset="1" stop-color="#45afe3"/></linearGradient><linearGradient id="c" x1=".042%" x2="99.989%" y1="50.037%" y2="50.037%"><stop offset="0" stop-color="#faa51a"/><stop offset=".387" stop-color="#fab716"/><stop offset=".741" stop-color="#fac412"/><stop offset="1" stop-color="#fac80f"/></linearGradient><linearGradient id="d" x1=".016%" x2="99.999%" y1="49.998%" y2="49.998%"><stop offset="0" stop-color="#ec3b50"/><stop offset="1" stop-color="#e7515b"/></linearGradient><g fill="none"><path d="m20.451 11.082-19.25-10.98a.776.776 0 0 0 -.78.007.769.769 0 0 0 -.39.67s.006 1.011.014 2.679l14.022 13.994 6.383-6.37z" fill="url(#a)" transform="translate(.748 .364)"/><path d="m.03 3.454c.024 6.026.094 20.653.125 27.935l13.935-13.909z" fill="url(#b)" transform="translate(.748 .364)"/><path d="m31.445 17.377-11.023-6.287-6.394 6.374 7.214 7.2 10.211-5.938a.779.779 0 0 0 .39-.67.789.789 0 0 0 -.398-.678z" fill="url(#c)" transform="translate(.748 .364)"/><path d="m.151 31.39c.016 2.594.024 4.253.024 4.253 0 .28.148.538.39.67.243.14.54.14.782 0l19.953-11.6-7.222-7.2z" fill="url(#d)" transform="translate(.748 .364)"/></g></svg>