<svg height="30" viewBox="0 0 30 30" width="30" xmlns="http://www.w3.org/2000/svg"><path d="m276 110c-8.312625 0-15-6.687375-15-15s6.687375-15 15-15 15 6.687375 15 15-6.687375 15-15 15zm0-5.937375 1.125-1.125-1.125-4.3125-1.125 4.3125zm-1.437375-.062625-.5625 2.125125 1.3125-1.3125zm2.87475 0-.75.75 1.3125 1.3125zm1.06275 3.874875-2.500125-2.49975-2.500125 2.49975c.812625.12525 1.62525.250125 2.500125.250125s1.6875-.062625 2.500125-.250125zm-2.500125-25.999875c-7.249875 0-13.125 5.875125-13.125 13.125 0 5.749875 3.687375 10.624875 8.8125 12.375l2.8125-10.437375c-.625125-.437625-1.000125-1.187625-1.000125-2.00025 0-1.37475 1.125-2.49975 2.500125-2.49975s2.500125 1.125 2.500125 2.49975c0 .812625-.375 1.5-1.000125 2.00025l2.8125 10.437375c5.125125-1.750125 8.8125-6.625125 8.8125-12.375 0-7.249875-5.875125-13.125-13.125-13.125zm8.562375 19.624875c-.312375.375-.874875.50025-1.3125.1875-.43725-.312375-.499875-.874875-.1875-1.249875 0 0 1.6875-2.25 1.6875-5.4375s-1.6875-5.4375-1.6875-5.4375c-.312375-.375-.24975-.9375.1875-1.249875.437625-.31275 1.000125-.1875 1.3125.1875.12525.124875 2.0625 2.68725 2.0625 6.499875s-1.93725 6.375-2.0625 6.499875zm-4.56225-2.4375c-.375-.375-.31275-1.062375.06225-1.437375 0 0 .9375-1.000125.9375-2.625s-.9375-2.562375-.9375-2.625c-.375-.375-.375-1.000125-.06225-1.437375.375-.437625.9375-.437625 1.3125-.062625.06225.062625 1.56225 1.624875 1.56225 4.125s-1.5 4.062375-1.56225 4.125c-.375.375-.9375.312375-1.3125-.062625zm-8.00025 0c-.375.375-.9375.437625-1.3125.062625-.06225-.124875-1.56225-1.624875-1.56225-4.125s1.5-4.000125 1.56225-4.125c.375-.375 1.000125-.375 1.3125.062625.375.375.31275 1.062375-.06225 1.437375 0 .062625-.9375 1.000125-.9375 2.625s.9375 2.625.9375 2.625c.375.375.43725 1.000125.06225 1.437375zm-3.24975 2.625c-.437625.31275-1.000125.1875-1.3125-.1875-.12525-.124875-2.0625-2.68725-2.0625-6.499875s1.93725-6.375 2.0625-6.499875c.312375-.375.874875-.50025 1.3125-.1875.43725.312375.499875.874875.1875 1.249875 0 0-1.6875 2.25-1.6875 5.4375s1.6875 5.4375 1.6875 5.4375c.312375.375.1875.9375-.1875 1.249875z" fill="#ff0045" transform="translate(-261 -80)"/></svg>