<svg height="40" width="40" xmlns="http://www.w3.org/2000/svg" xmlns:xlink="http://www.w3.org/1999/xlink"><linearGradient id="a" x1="49.897%" x2="49.05%" y1="101.27%" y2="0%"><stop offset="0" stop-color="#822cbe"/><stop offset="1" stop-color="#d772fb"/></linearGradient><g fill="none"><rect fill="url(#a)" height="39.6" rx="5" width="39.6"/><g fill="#fff"><path d="m18.59 34.668c-1.18-.422-1.434-.996-1.918-4.36-.564-3.912-.687-6.333-.36-7.1.432-1.016 1.607-1.593 3.25-1.6 1.63-.006 2.816.576 3.252 1.6.327.766.204 3.188-.36 7.1-.382 2.732-.593 3.422-1.121 3.887-.726.642-1.756.82-2.733.475zm-5.045-4.012c-4.08-2.007-6.693-5.402-7.643-9.919-.238-1.165-.277-3.947-.053-5.016.594-2.87 1.73-5.116 3.617-7.101 2.719-2.867 6.217-4.383 10.11-4.383 3.855 0 7.34 1.488 9.993 4.27 2.02 2.098 3.155 4.32 3.736 7.246.198.974.198 3.63.013 4.725a14.033 14.033 0 0 1 -5.346 8.739c-1.003.758-3.458 2.08-3.854 2.08-.145 0-.159-.15-.093-.759.12-.977.238-1.18.792-1.412.885-.37 2.39-1.442 3.314-2.368a12.612 12.612 0 0 0 3.313-5.835c.343-1.36.303-4.382-.08-5.781-1.2-4.449-4.83-7.907-9.28-8.831-1.293-.264-3.642-.264-4.95 0-4.5.924-8.223 4.554-9.358 9.121-.303 1.24-.303 4.264 0 5.505.753 3.022 2.706 5.794 5.267 7.444.502.33 1.109.674 1.36.78.554.237.673.435.778 1.412.066.594.053.765-.092.765-.092 0-.766-.29-1.478-.633l-.066-.05zm.052-5.37c-1.372-1.096-2.587-3.039-3.088-4.945-.304-1.15-.304-3.34.013-4.488.831-3.1 3.115-5.502 6.283-6.63 1.082-.383 3.485-.469 4.818-.174 4.594 1.023 7.854 5.623 7.22 10.186-.25 1.839-.884 3.349-2.006 4.752-.554.709-1.9 1.898-2.138 1.898-.04 0-.08-.449-.08-.995v-.998l.687-.818c2.587-3.1 2.402-7.43-.423-10.27-1.095-1.106-2.362-1.756-4-2.055-1.055-.196-1.28-.196-2.388-.013-1.683.274-2.988.926-4.145 2.072-2.838 2.812-3.023 7.164-.436 10.266l.681.818v1.003c0 .555-.043 1.003-.097 1.003-.053 0-.436-.264-.845-.594zm4.58-5.39c-1.174-.546-1.808-1.577-1.82-2.92 0-1.209.672-2.262 1.834-2.878.74-.388 2.046-.388 2.785.002a3.586 3.586 0 0 1 1.716 2.078c.766 2.603-1.993 4.884-4.488 3.718h-.026z"/><circle cx="19.785" cy="17.116" r="3.292"/><path d="m20.101 21.684c.228.03.682.09 1.102.224.423.132.805.34 1.104.552.29.211.501.43.633.697.132.266.198.583.238 1.102.026.52.026 1.24-.093 2.587a93.965 93.965 0 0 1 -.54 4.571c-.186 1.268-.318 1.822-.49 2.231-.17.423-.395.7-.646.898-.25.198-.541.317-.818.383-.278.066-.528.066-.766.066s-.462 0-.766-.066c-.303-.066-.7-.185-.99-.423-.303-.237-.501-.58-.66-1.03-.158-.448-.277-.99-.435-2.072-.159-1.082-.37-2.693-.502-3.92-.132-1.228-.185-2.073-.195-2.64-.013-.568.013-.849.08-1.122.065-.264.17-.515.316-.726.145-.211.335-.396.528-.541.189-.146.383-.251.615-.333.23-.093.506-.172.845-.238.343-.066.739-.132.942-.158.204-.03.204-.03.43 0z"/></g></g></svg>