<svg height="24" viewBox="0 0 42 24" width="42" xmlns="http://www.w3.org/2000/svg"><path d="m.50888444 10.6629242c-.0854988 0-.15335959.0662455-.1644144.1606984l-.29963913 2.2803079.29963913 2.2410251c.01105481.0944528.0788742.1602421.1644144.1602421.08280755 0 .15025431-.065333.16346211-.1594125v-.0004563.0004563l.35516159-2.2418962-.35516159-2.2807227c-.01279377-.094038-.08106859-.1602421-.16346211-.1602421zm1.6850923-1.24588972c-.01411869-.09797874-.08417388-.16555172-.17054215-.16555172-.08682372 0-.15865928.06977148-.17054216.16555172 0 .0008711-.40277594 3.68689602-.40277594 3.68689602l.40277594 3.6052194c.01146885.0966928.0833044.1664643.17054216.1664643.08591283 0 .15600943-.0679878.17008671-.1655518l.458257-3.6061319zm6.34736456-3.40079974c-.16524248 0-.30187494.13551929-.30978306.307708l-.32079646 6.78305736.32079646 4.3835738c.00836356.1712761.14454058.3063806.30978306.3063806.16437299 0 .30055001-.1355608.31023849-.3072517v.0013274l.36265568-4.3840301-.36265568-6.78305736c-.00972988-.17218871-.1459069-.307708-.31023849-.307708zm-3.28518265 2.35754601c-.12690258 0-.23045342.10154613-.24063875.23706541l-.36133076 4.49437024.36133076 4.3482317c.00968848.1346482.11369477.2361943.24063875.2361943.12557765 0 .2291285-.1015461.24018331-.2361943l.41068406-4.3482317-.41068406-4.49528283c-.01105481-.13460669-.11460566-.23615282-.24018331-.23615282zm6.62369335 9.42275885c.2049073 0 .3714747-.1655932.3798383-.3775209l.3146687-4.3098201-.3142133-9.0307195c-.0083636-.21192776-.1749724-.37747948-.3798382-.37747948-.2066877 0-.3736691.16600801-.3803351.37793577l-.2789373 9.02980691.2789373 4.3116038c.0066246.2101855.173606.3761935.3798796.3761935zm6.8347284.0203259c.2820425 0 .5147318-.2326684.51999-.5187647v.0030696-.0030696l.2194815-4.1862474-.2195229-10.42979948c-.0048442-.28563997-.2379475-.51872318-.51999-.51872318-.2824565 0-.5155598.2326684-.51999.51917947l-.1960883 10.42581729c0 .006637.1960883 4.1923866.1960883 4.1923866.0044716.2834415.2379889.5161514.5200314.5161514zm-3.4433865-.0163437c.245483 0 .4433103-.1973678.4499349-.4489931v.0030696l.2670129-4.2444871-.2674684-9.0960525c-.0066246-.25166681-.2044518-.44853688-.4499348-.44853688-.247222 0-.4450492.19691155-.4503489.44853688l-.237492 9.0965088.2379475 4.243616c.0052996.2489705.2031269.4463383.4503488.4463383zm-8.37884081-.039739c.1458655 0 .26399048-.1170186.27500388-.27108l.38691829-4.3844449-.38691829-4.17077494c-.01055796-.1540614-.12864153-.27020893-.27500388-.27020893-.1480185 0-.26614348.11697715-.27537652.27199263l-.34067027 4.16899124.34067027 4.38403c.00968849.1544763.12731661.2714949.27537652.2714949zm-3.25913967-.2401765c.10661472 0 .192983-.0843314.20532132-.2008938l.43449124-4.2153672-.4340772-4.37428199c-.01279376-.11697716-.09916204-.20135005-.20577677-.20135005-.10798105 0-.19434932.0847877-.20536273.20135005l-.38248809 4.37428199.38248809 4.2144961c.01059937.1169772.09696765.2017649.20540414.2017649zm13.35309058-13.65799568c-.2665989 0-.4803666.21238405-.4856249.4843352l-.2167902 8.76403648.2167902 4.2171095c.0052997.2684252.2185705.4808093.4856249.4808093.2661435 0 .4785862-.2119278.484714-.483879v.003526l.2432472-4.2171095-.2432472-8.76540536c-.0061692-.27103857-.2186119-.48342262-.484714-.48342262zm-6.7818972 13.94276458c.1842054 0 .3362401-.150577.3450591-.3426353l.3384344-4.3544539-.3384344-8.33445652c-.0092745-.19251453-.1608537-.34259373-.3450591-.34259373-.1859444 0-.3375236.15053549-.34547312.34259373l-.29963913 8.33445652.30009457 4.3562376c.00745268.1902746.15903188.3408516.34501768.3408516zm3.7791711-.4110379v-.00224l.2908201-4.2824424-.2908201-9.3349016c-.0070801-.2317558-.1895051-.41365113-.4147002-.41365113-.2265201 0-.4089451.18143903-.4150729.41365113l-.2582353 9.3344453.2586493 4.2846824c.0061692.2295573.1886357.4109964.4147003.4109964.2256092 0 .4071647-.1814391.4147002-.4123238v.0017837zm21.997164-9.66559016c-.6905322 0-1.3493077.13995777-1.9494968.3920394-.401037-4.5508677-4.210143-8.12078654-8.8565162-8.12078654-1.1369063 0-2.2452026.22428918-3.2239051.60351087-.3802937.14746589-.4816501.29932878-.4851695.59380426v16.02611937c.0039748.3090354.2432472.5664267.5442527.5969154.0127938.0013274 13.8805333.0083792 13.9704623.0083792 2.7832446 0 5.0399161-2.2608947 5.0399161-5.0497628 0-2.78890968-2.2562574-5.05021916-5.0395435-5.05021916zm-15.5453791-6.54553564c-.3027444 0-.5512499.24901201-.5556801.55493631l-.2273896 11.37503299.227845 4.128381c.0039748.3015688.2525217.5501245.5552247.5501245.3018335 0 .5503804-.2485557.5547692-.5545215v.0048533l.2472219-4.1288373-.2472219-11.37590409c-.0043888-.3050532-.2529357-.55406521-.5547692-.55406521zm-16.32049925 19.855628c-.59621438-.1404141-.7575235-.2154537-.7575235-.4521043 0-.1668376.13439666-.3394826.5371726-.3394826.34414819 0 .61298291.1399163.85449114.3876009l.54247228-.5271024c-.35470615-.3712988-.78439455-.5920621-1.36959552-.5920621-.74207989 0-1.34359396.4198734-1.34359396 1.1037334 0 .7425561.48388594.9633609 1.17661253 1.1244741.70899826.1611547.83813664.2692963.83813664.5116713 0 .2852252-.21020697.4092542-.65529757.4092542-.36000583 0-.6984403-.1236142-.96193394-.4313222l-.54255508.4847915c.28465096.4198733.8332924.6834453 1.46122208.6834453 1.02677225 0 1.47799061-.4843352 1.47799061-1.19997.0000414-.8185497-.66096989-1.0229693-1.25759831-1.1629271zm3.46094168-1.5231505c-1.02586137 0-1.63267512.7964817-1.63267512 1.9430238 0 1.1465836.60677234 1.9425675 1.63267512 1.9425675 1.02590277 0 1.6335446-.7959839 1.6335446-1.9425675 0-1.1465421-.60764183-1.9430238-1.6335446-1.9430238zm0 3.1381404c-.60677235 0-.85974942-.5222905-.85974942-1.1947018 0-.672826.25293567-1.1951166.85974942-1.1951166.60768323 0 .85974942.5222906.85974942 1.1951166 0 .6724113-.25206619 1.1947018-.85974942 1.1947018zm4.66935227-.9633608c0 .6026398-.2961198.9743534-.7737952.9743534-.4781308 0-.7681228-.3823328-.7681228-.9849311v-2.1054644h-.75263786v2.1160836c0 1.0975527.61298286 1.7112265 1.52071926 1.7112265.9562617 0 1.526019-.6300174 1.526019-1.7218042v-2.1055059h-.7521824zm3.9968308-.5222491c0 .2101441.010558.6834453.010558.8234031-.0484425-.0971491-.1718257-.2852252-.2630796-.4255978l-1.3329946-1.9920131h-.7196391v3.7686141h.7416659v-1.6582964c0-.2101026-.0105994-.6834453-.0105994-.8234031.0480284.0966929.1722811.2852252.2630796.4256393l1.381023 2.0560187h.6715692v-3.7686141h-.7416244v1.5942493zm2.8850565-1.593793h-1.1765711v3.7685726h1.1223322c.967275 0 1.9239921-.5602459 1.9239921-1.8842863 0-1.3783393-.795408-1.8842863-1.8697532-1.8842863zm-.0542389 3.0365528h-.3701084v-2.3041182h.3974763c.7954079 0 1.1232844.3818765 1.1232844 1.1518517-.0000414.6891697-.3605026 1.1522665-1.1506523 1.1522665zm4.2502633-2.3473831c.3384344 0 .5534442.1509918.6878409.4092541l.6984403-.3227242c-.2366226-.4896448-.666725-.8344371-1.3757647-.8344371-.9822632 0-1.670601.7964817-1.670601 1.9430238 0 1.1893922.6605559 1.9425675 1.6436886 1.9425675.6825826 0 1.1338424-.3174146 1.3916223-.8503244l-.6336848-.3770232c-.1987795.3342145-.3979317.4794819-.7363662.4794819-.5640436 0-.8918787-.5170224-.8918787-1.1947018-.0003726-.6993326.3230737-1.1951166.8867033-1.1951166zm2.7898278-.6891697h-.7522238v3.7685726h2.2606462v-.7434686h-1.5084224zm3.49009-.0587375c-1.0267309 0-1.6335446.7964817-1.6335446 1.9430238 0 1.1465836.6068137 1.9425675 1.6335446 1.9425675 1.0258613 0 1.6330891-.7959839 1.6330891-1.9425675.0000414-1.1465421-.6072278-1.9430238-1.6330891-1.9430238zm0 3.1381404c-.6076833 0-.8597494-.5222905-.8597494-1.1947018 0-.672826.2520661-1.1951166.8597494-1.1951166.6063997 0 .8588385.5222906.8588385 1.1951166 0 .6724113-.2524388 1.1947018-.8588385 1.1947018zm4.6684414-.9633608c0 .6026398-.2947949.9743534-.7729257.9743534-.4790003 0-.7685369-.3823328-.7685369-.9849311v-2.1054644h-.7521824v2.1160836c0 1.0975527.6125275 1.7112265 1.5207193 1.7112265.9562616 0 1.5256049-.6300174 1.5256049-1.7218042v-2.1055059h-.7526792zm2.8691989-2.1160421h-1.1761571v3.7685726h1.1223736c.9676891 0 1.9234952-.5602459 1.9234952-1.8842863 0-1.3783393-.7949525-1.8842863-1.8697117-1.8842863zm-.0537835 3.0365528h-.3706052v-2.3041182h.3979317c.794497 0 1.1223322.3818765 1.1223322 1.1518517.0000414.6891697-.3600059 1.1522665-1.1496587 1.1522665z" fill="#ff0045" transform="translate(.226 .058)"/></svg>