<svg height="32" viewBox="0 0 33 32" width="33" xmlns="http://www.w3.org/2000/svg"><path d="m15.9697674 0c-8.80347667 0-15.9395788 7.12258679-15.9395788 15.9093902 0 8.7868035 7.13610213 15.9093903 15.9395788 15.9093903 8.8034768 0 15.9395789-7.1225868 15.9395789-15.9093903 0-8.78571781-7.1361021-15.90830461-15.9395789-15.9093902zm7.3101269 22.9451295c-.2860532.4689769-.8984027.6155322-1.3660942.3300208-3.7426197-2.2830057-8.4543396-2.7986632-14.00246593-1.5339454-.53512609.1226722-1.06807687-.2116909-1.18989419-.7458035-.12290497-.5341126.211005-1.066054.74721874-1.1876406 6.07128828-1.3841332 11.28006638-.7881418 15.48167628 1.7738617.4676915.2876826.6167001.8967012.3295593 1.363507zm1.9501648-4.3304373c-.3600137.58405-1.1257226.7664299-1.7097931.4081836-4.283184-2.6282247-10.8156378-3.3892266-15.88302081-1.8541957-.6569434.1986638-1.35086707-.171524-1.55099552-.8261376-.19795315-.6556992.17293709-1.347223.82879284-1.5469724 5.78849799-1.7532354 12.98550879-.9043004 17.90497079 2.1136529.5851582.3593318.7700595 1.1225049.4100458 1.7054692zm.1674988-4.5117315c-5.1380805-3.0450931-13.6130855-3.3251766-18.51840799-1.840083-.78746197.2388308-1.62060543-.2051774-1.8588018-.991148-.23819636-.7859705.20556673-1.61753608.99411635-1.85636691 5.63078814-1.70546927 14.99005634-1.37653408 20.90472234 2.12776561.7080631.4201251.9408212 1.3331103.5209865 2.0387468-.418747.7078078-1.3356399.9412106-2.0426154.5210855z" fill="#ff0045" transform="translate(.804 .118)"/></svg>